<mxfile modified="2023-06-15T01:16:02.313Z" host="app.diagrams.net" agent="Mozilla/5.0 (Windows NT 10.0; Win64; x64) AppleWebKit/537.36 (KHTML, like Gecko) Chrome/114.0.0.0 Safari/537.36" etag="i0wguKhxk7kP0fAJMa3z" version="21.3.8" type="device">
  <diagram id="C2fSY1v2SiZeoUbDoYyL" name="Page-1">
    <mxGraphModel dx="1804" dy="370" grid="1" gridSize="10" guides="1" tooltips="1" connect="1" arrows="1" fold="1" page="1" pageScale="1" pageWidth="1169" pageHeight="827" math="0" shadow="0">
      <root>
        <mxCell id="0" />
        <mxCell id="1" parent="0" />
        <mxCell id="3ne1QswCM8ZiEu4GHsYG-17" style="orthogonalLoop=1;jettySize=auto;html=1;curved=1;sourcePerimeterSpacing=5;targetPerimeterSpacing=5;exitX=1;exitY=0.5;exitDx=0;exitDy=0;entryX=0;entryY=0;entryDx=0;entryDy=0;" parent="1" source="td64U-7Y8Hn7qM6U94D4-1" target="3ne1QswCM8ZiEu4GHsYG-5" edge="1">
          <mxGeometry relative="1" as="geometry">
            <mxPoint x="145" y="323.60529404094416" as="targetPoint" />
          </mxGeometry>
        </mxCell>
        <mxCell id="td64U-7Y8Hn7qM6U94D4-11" value="loadRawData" style="edgeLabel;html=1;align=center;verticalAlign=middle;resizable=0;points=[];fontSize=8;" parent="3ne1QswCM8ZiEu4GHsYG-17" vertex="1" connectable="0">
          <mxGeometry x="-0.6335" relative="1" as="geometry">
            <mxPoint x="-9" y="27" as="offset" />
          </mxGeometry>
        </mxCell>
        <mxCell id="3ne1QswCM8ZiEu4GHsYG-5" value="fillDataBySensor" style="shape=image;verticalLabelPosition=bottom;verticalAlign=top;aspect=fixed;image=data:image/svg+xml,PHN2ZyB4bWxucz0iaHR0cDovL3d3dy53My5vcmcvMjAwMC9zdmciIHhtbG5zOnhsaW5rPSJodHRwOi8vd3d3LnczLm9yZy8xOTk5L3hsaW5rIiB2ZXJzaW9uPSIxLjEiIGlkPSJMYXllcl8xIiB4PSIwcHgiIHk9IjBweCIgd2lkdGg9IjQ4cHgiIGhlaWdodD0iNDhweCIgdmlld0JveD0iMCAwIDQ4IDQ4IiBlbmFibGUtYmFja2dyb3VuZD0ibmV3IDAgMCA0OCA0OCIgeG1sOnNwYWNlPSJwcmVzZXJ2ZSI+JiN4YTs8ZyBpZD0iY29sb3JfMjlfIj4mI3hhOwk8Zz4mI3hhOwkJPHBhdGggZmlsbD0iI0ZGREE4RSIgZD0iTTQ1LjQzOCwxNy4wOTZsMC4wMDMtMC4wMDdsLTE5LTlsLTAuMDAzLDAuMDA3Yy0wLjEzLTAuMDYzLTAuMjcyLTAuMTA0LTAuNDI3LTAuMTA0ICAgIHMtMC4yOTcsMC4wNDEtMC40MjcsMC4xMDRsLTAuMDAzLTAuMDA3bC0xOSw5bDAuMDAzLDAuMDA3Yy0wLjMzNiwwLjE2MS0wLjU3MywwLjQ5OS0wLjU3MywwLjg5NnYxNyAgICBjMCwwLjM5NywwLjIzNywwLjczNSwwLjU3MywwLjg5NmwtMC4wMDMsMC4wMDdsMjAsMTBsMC4wMDMtMC4wMDdjMC4xMywwLjA2MywwLjI3MiwwLjEwNCwwLjQyNywwLjEwNHMwLjI5Ny0wLjA0MSwwLjQyNy0wLjEwNCAgICBsMC4wMDMsMC4wMDdsMTgtOS4wMDFsLTAuMDAzLTAuMDA2YzAuMzM3LTAuMTYxLDAuNTczLTAuNDk5LDAuNTczLTAuODk2di0xOEM0Ni4wMTEsMTcuNTk1LDQ1Ljc3NSwxNy4yNTcsNDUuNDM4LDE3LjA5NnoiLz4mI3hhOwk8L2c+JiN4YTs8L2c+JiN4YTs8ZyBpZD0ib3V0bGluZV8yOF8iPiYjeGE7CTxnPiYjeGE7CQk8cGF0aCBmaWxsPSIjMzg0RDY4IiBkPSJNMy43MTMsMTAuNjczTDYuNTcsNy41MjFjNC43MzYtNC43MzUsOS43MDctNC43MjEsMTQuNDI4LDBsMi42MTEsMi40NzRsLTQuNTk4LTAuMDAyICAgIGMtMC41MzQtMC4wMDEtMS4wMDEsMC40NzUtMSwxczAuNDY2LDAuOTk5LDEsMWw3LjAyMSwwLjAwM2MwLjUzNSwwLjAwMiwwLjk4LTAuNDc4LDAuOTc5LTEuMDAzdi03Yy0wLjAwMi0wLjUyNS0wLjQ2Ni0wLjk5OS0xLTEgICAgcy0xLjAwMiwwLjQ3NS0xLDFsLTAuMDE2LDQuNzEzbC0yLjU3LTIuNTg5Yy01LjUwNS01LjUwNS0xMS44MzItNS40NTMtMTcuMjg0LDBMMi4yODUsOS4yNjljLTAuMzk1LDAuMzg4LTAuMzk1LDEuMDE3LDAsMS40MDQgICAgUzMuMzE5LDExLjA2MSwzLjcxMywxMC42NzN6IE00NS45NDEsMTUuNjQ2Yy0wLjAxMi0wLjAzNC0wLjAyOC0wLjA2My0wLjA0NS0wLjA5NmMtMC4wMzctMC4wNzQtMC4wODItMC4xNDEtMC4xMzUtMC4yMDIgICAgYy0wLjAyNC0wLjAyNy0wLjA0NS0wLjA1Ny0wLjA3Mi0wLjA4MmMtMC4wNzQtMC4wNjktMC4xNTYtMC4xMjktMC4yNDktMC4xNzRsMC4wMDEtMC4wMDNMMzAuNDM1LDguMDk0ICAgIGMtMC4xMy0wLjA2Mi0wLjI3MS0wLjEwMi0wLjQyNC0wLjEwMmMtMC41NTMsMC0xLDAuNDQ3LTEsMWMwLDAuNzI1LDAuODg2LDEuMDY2LDAuNzk4LDEuMDA1bC0wLjE3My0wLjA4ICAgIGMwLjExMiwwLjA0NSwwLjE1NSwwLjA2NywwLjE3MywwLjA4bDEyLjg3Niw1Ljk5NWwtMTIuNTE3LDUuOTYxbC01LjE1Ny0yLjU3OXYtNC4zODJjMC0wLjU1My0wLjQ0Ny0xLTEtMWMtMC41NTIsMC0xLDAuNDQ3LTEsMSAgICB2NC4zODJsLTUuMTU3LDIuNTc5TDUuMzM3LDE1Ljk5M2w4Ljk4OC00LjA2M2MwLjM5Ni0wLjEzMywwLjY4Ni0wLjQ5NSwwLjY4Ni0wLjkzN2MwLTAuNTUzLTAuNDQ4LTEtMS0xICAgIGMtMC4yNDEsMC0wLjM0MSwwLjA0Ni0wLjM0MSwwLjA0NkwyLjU4MiwxNS4wODlsMC4wMDEsMC4wMDNjLTAuMDkzLDAuMDQ1LTAuMTc1LDAuMTA0LTAuMjUsMC4xNzQgICAgYy0wLjAyNywwLjAyNS0wLjA0NywwLjA1NS0wLjA3MSwwLjA4MmMtMC4wNTMsMC4wNjItMC4wOTksMC4xMjgtMC4xMzYsMC4yMDJjLTAuMDE2LDAuMDMyLTAuMDMyLDAuMDYyLTAuMDQ1LDAuMDk2ICAgIGMtMC4wNDEsMC4xMDktMC4wNywwLjIyNC0wLjA3LDAuMzQ3djE5YzAsMC4zOTgsMC4yMzQsMC43MzksMC41NzEsMC45bC0wLjAwMSwwLjAwM2wyMSwxMGwwLjAwMS0wLjAwMyAgICBjMC4xMywwLjA2MiwwLjI3NCwwLjEsMC40MjksMC4xczAuMjk5LTAuMDM4LDAuNDI5LTAuMWwwLjAwMSwwLjAwM2wyMS0xMGwtMC4wMDEtMC4wMDNjMC4zMzctMC4xNjEsMC41NzEtMC41MDIsMC41NzEtMC45di0xOSAgICBDNDYuMDExLDE1Ljg3LDQ1Ljk4MiwxNS43NTUsNDUuOTQxLDE1LjY0NnogTTIzLjAxMSw0My40MDlsLTE5LTkuMDQ4VjE3LjU3N2wxOSw5LjA0OFY0My40MDl6IE0yNC4wMTEsMjQuODg1bC0zLjg2Ni0xLjg0MiAgICBsMy44NjYtMS45MzNsMy44NjYsMS45MzNMMjQuMDExLDI0Ljg4NXogTTQ0LjAxMSwzNC4zNjFsLTE5LDkuMDQ4VjI2LjYyNWwxOS05LjA0OFYzNC4zNjF6Ii8+JiN4YTsJPC9nPiYjeGE7PC9nPiYjeGE7PC9zdmc+;fontSize=8;" parent="1" vertex="1">
          <mxGeometry x="150" y="321.00000000000034" width="48" height="48" as="geometry" />
        </mxCell>
        <mxCell id="3ne1QswCM8ZiEu4GHsYG-18" style="orthogonalLoop=1;jettySize=auto;html=1;curved=1;sourcePerimeterSpacing=5;targetPerimeterSpacing=5;entryX=0;entryY=0.5;entryDx=0;entryDy=0;" parent="1" target="td64U-7Y8Hn7qM6U94D4-31" edge="1">
          <mxGeometry relative="1" as="geometry">
            <mxPoint x="202.9999999999999" y="341.0000000000002" as="sourcePoint" />
            <mxPoint x="255" y="341.00000000000034" as="targetPoint" />
          </mxGeometry>
        </mxCell>
        <mxCell id="3ne1QswCM8ZiEu4GHsYG-20" style="orthogonalLoop=1;jettySize=auto;html=1;curved=1;sourcePerimeterSpacing=5;targetPerimeterSpacing=5;exitX=1;exitY=0.5;exitDx=0;exitDy=0;" parent="1" source="td64U-7Y8Hn7qM6U94D4-31" edge="1">
          <mxGeometry relative="1" as="geometry">
            <mxPoint x="377.5" y="351.00000000000034" as="sourcePoint" />
            <mxPoint x="360" y="340" as="targetPoint" />
          </mxGeometry>
        </mxCell>
        <mxCell id="3ne1QswCM8ZiEu4GHsYG-31" value="Data Cleaning Procedures" style="text;html=1;strokeColor=none;fillColor=none;align=center;verticalAlign=middle;whiteSpace=wrap;rounded=0;fontStyle=1;fontSize=20;fontColor=#4D4D4D;" parent="1" vertex="1">
          <mxGeometry x="189.5" y="50" width="790" height="30" as="geometry" />
        </mxCell>
        <mxCell id="3ne1QswCM8ZiEu4GHsYG-32" value="" style="line;strokeWidth=2;html=1;fontSize=20;fontColor=#4D4D4D;" parent="1" vertex="1">
          <mxGeometry x="103.5" y="80" width="960" height="10" as="geometry" />
        </mxCell>
        <mxCell id="td64U-7Y8Hn7qM6U94D4-1" value="" style="shape=image;verticalLabelPosition=bottom;labelBackgroundColor=default;verticalAlign=top;aspect=fixed;imageAspect=0;image=data:image/png,iVBORw0KGgoAAAANSUhEUgAAAMQAAACDCAMAAADlJUSNAAAAnFBMVEX///9MNwBFLgBKNQBBKABDKwD6+fhVQS3j4NxxY07n5uUuAwC3sag6HACqo5htX0h3a1xZSSaRh3V8b1g/JABIMQDt7Ombk4tMNxHLx7+TiYI8IQD08/E0EwBSPhs2FgC/urXX082Jfm5YRi4yDgAwCQCckoQoAACGenFGLhGAc2FmV0JgTzROOQ1MNxlgTzlbSz9NOS1KNSNtX1SdJC/RAAAFUklEQVR4nO2ca3OqPBCAhQBFKmhbghfQgrYevNbT/v//drJBRX1DR51daN/J86kdx5in5LK7iW21NBqNRqPRaDQajUaj0Wg0Jd683b2Z9txtut8nJPl7yO/A+vMcNd33A0n+atxJ3Haa7v2evn+vg7CYNt37gshnoje2fzM2WCx+xrxIx6Iv5rJzM0tLvNEKmu6/5Fn0ha/ueedSPAurj92fuwAJ8+Wed/ZDMQxH2P25jSQCkqn9eyWyoLeeABvjt0p4y21ocwYYv1Uitayz5R4knHT1dC2jqHmJYcyN/0hkvnl1wOHnTtMSw4EcQ5a9GQjYXmIaXr9Rs4nbsITzAXst90edIfBiFhLB+HoJ/uE1LCG3aP4w3P962Ce8XWxdy6vcp5uUWIkJwbbHmOe42Tnp1RFH1mpYwn0Qs8AvQ55fuWOnsDKFZTZTSkSVJMqWComkiZSiAxO5XXbrIOEEk8qJ/JWpWgIJgz31AuWrpHQgVuqVf76DRDoudnAV1l9VS1LCYHa4zdWPio4qialV+SBEBqfKffrHnSUc15wbVUkEj9/sC2+qgV9KGHxQ75Cqkkjy7aCKz1TVkpTYmDJN5ZtaCx9VEiJ6GlbhKVsCCXOZ5jZELuGynu4XVEvcyn6fcNIQLGodUOgSEBULCTuvccMgkGiNxE98rR50JFBIZFsxoN5qHE8UEsmXiGX8DlIPr4BCopWLWCausQRFJhH+GIlk2AmupS16ztvyxxWDqPL0xSFpOPWNhJO9bBf21fAi/gNk0s7PXt1OCTWqJYard5N9n1zfAIuPGXB9EsnINNEMJOaCLJ6qkHDjfUzKTAzkUDPvKrbfLbF0J8UID8eTbhuBtTx+2lLtfyoJtn6SDtZs7jk4pDC9yI5gVBKGrCsze4o4iEeiXYuqFqKUkEMJN24IQsLItkqCL1AHsJNTHoZVSZi48VsyqH1OiCePfCId+HWvToJ35CABMgz+hdtmiVrCQs7zh1ADeSXLMNQSNu6Dd3omrNuobZ6ilMBeCzMuRlNMd9tAKWGmuB8CNVE2o6ttXkrIM5cZ7oNI/hi0RxcXEsOFcXbmgkIAhagxYfXjXEJurMzAfRDRDrLVNWqb55xLeBBsYqf4qVxf6fK6S4l5DKeQ2OurDbePKMvk5xJvsDT1cD8hg0Zt0ttcZxIdiHDekR/8C0yzT9LK7KmELD/yCe4HuLDeWc+4jV5wKiFnIHYNtQ+NPtIe4p1KwC2+4p4GHt4Hx48nLzmRcOXGiry+ymlmUq6vrTMJGTZh32zdwDT7Ij7YLiXcT7HR2diJBKyvMfVRRSkRwAzEPt+BRMJ4pT6+O0pEEL/ayFfW5cFXPEdtU8FRQl7eslPc1uHghXHyI8ijxBoyyB1uhJNAKbGGw+CDRAYPAjuDlIWaAfH62iolcrmx4v7NnBlpoaZkL+HC51nIFTMZxoxT3EZV7CUgg2Qcd31NZCIxqeF6RCEhS6V2D3l9tQmmmRKQsKckEU6PuFBTAhK8t2bwebgtJ4/EhZoSkDA2jKBQMw/pE4k9UkKeDG1wQ82iUNNFbbOKzuG0GrtQ04HAfky/0QHp/rsTbIa7vnqMnd8apkTeFccv1CRf8mt3dd152hUSIeq0TnJw4MiF6Wqg6Idd5HA/YnmIXNsNuugN+6QxCSZyycNes78jKB6FOc08DNLnRXHfySdP6E6IusUqa70/YjC2WHEhgbbod4nnI99sgudaS+B3iru64fto18BD9fdESIn6b3H1dz5uhFuP67Tur4FIvPlq94DCrvvsNvevCiIXhR/zHyM0Go1Go9FoNBqNRqPR/H/4ByuyhQhTOxx/AAAAAElFTkSuQmCC;" parent="1" vertex="1">
          <mxGeometry x="35.97000000000001" y="274.5" width="61.34" height="41" as="geometry" />
        </mxCell>
        <mxCell id="td64U-7Y8Hn7qM6U94D4-2" value="Data&lt;br&gt;Files" style="text;html=1;align=center;verticalAlign=middle;resizable=0;points=[];autosize=1;strokeColor=none;fillColor=none;" parent="1" vertex="1">
          <mxGeometry x="10" y="305" width="50" height="40" as="geometry" />
        </mxCell>
        <mxCell id="td64U-7Y8Hn7qM6U94D4-3" value="" style="shape=image;verticalLabelPosition=bottom;labelBackgroundColor=default;verticalAlign=top;aspect=fixed;imageAspect=0;image=data:image/png,iVBORw0KGgoAAAANSUhEUgAAALoAAAEPCAMAAADCoC6xAAAAilBMVEX///8AAACtra1VVVVCQkLz8/P4+Pi/v7/a2trw8PBhYWHCwsLFxcXJycnr6+v8/PyEhISjo6Ozs7PS0tLl5eWVlZXf399oaGhbW1vPz8+IiIhNTU1vb2+6urokJCSOjo6bm5t6enobGxsrKys1NTUgICA+Pj4UFBQVFRULCwtmZmZXV1c4ODhAQEBZggwVAAAO7ElEQVR4nO1diZKiMBAVlEMQBAQFASEeM+OM+/+/t+oI5AKCHIGqeVVbtQMKzxCSTvfrzmzWFSR3Y8RiurcibR5+nC6f16sgCNfr5/H0Ec61yNp7orMK3GVnd2yLpRqnlnYWmuCkgTTemNw4r1XH250aUcZx0BJnIw/K2tQ97asVaRhXP1HcAVjLhvfTGWkYc28l9UdbUqx2HaQOBxD38RIHSbNX8V2c9kaXtCXnexDaGXynm74jiSHzPY/ncAcsL7VFJ1YUXV/puqLEsWin3h5E89uR+UoLsXXXief1tzn4wHMM1VyzXNBUDSe1fIaXJnSYLkiHCqovft55sfpu60hq7EU170+0ee/aTtV1Na+jsdjV06oX6SA2vqLslV4t9IyuhzDJSP3S+yWN3lnJKrnMt7jtmHWBrRiV3BUwN5VMJx7aam+0M2xt+rAA2Fo+pX03UoYyk9Y6oBHw6r9pXCm/udMJjgEBjb1S/R1ZI77h13ylJ6zIceenqtco+KevaY/mXA1km5h849IP448pXA3IlIYAN7B39M9J2OS8628cZIeLDZgX2rJQxYjzWzqiMDHypG0QoF1lDC2ewUVnWh07bSAvJ+8+jiO4wPTQIW8Dn9pzIlgFxKSCpxkTbvL+p/t3sIUbHjJaoQFU48euBvDruqYcZDAVuMEmGxh6RR2u3OoATfavV7XoLuUT7TiwKrg//3byP23OzOqBcc29hxFvYgyw4GbPp9Erb1pMOECDO8j+P7YplI68pcFslq2KzrxJMWLx4nucLbNf0dzhwQdx3tlz62U8MZ5qyDn14kdMBZkxMxNf//ngzYgZIU79xpsRMwjq0+kwXwT1saxF6yAJBPXxGzC/EEnqR96cGHEiqY/cVs9Q2OwQdaFF6GY4CFTqc960GKDRqQsWb2K1gH0aCHUh5U2tBrZQSl1IeJOrBMIcpz7qRR4QKqkLN36xgGrIC6GG+lg9GiuCJ4W6oA2raWLBmhJSpVEfnz1DJZkfPSNirsuY3AMGGik649RDGY2XfQwdKy3DBns9pSzGkVNfzGZYjPuGRz54wMCIh+ucJkx9hqsxvmzOFpl4wBg9pkwq9ZlKRNkBvxjHFuBkfqN3dOpk1FcQTjYPD83SJoVE4PdUGfWZStEedaAhawSqUu6UPf9S6rAPG8I/e6hIqmtTFX6FX7GCOm6hZbiC3jUxsm59Uu+dQh+qpF5G/j4d7PW++o60Sj5K7poiA10N9Xu3wcelHF+RqHY8aKoiKL3dEXdB11KfzYJKEV9kG104nZaBDapEiT45qTNQvz/DtEbJeo7SePNeD5LUOAW4CY7hmtKuzUT9jk2ZbBDGcQ48UQnc+lWK5G500QPz0u4BAZRIS1mp32EAhvvkv+IcahGwEi9NbdsW7//S1PMsEGnh+VL/9RxRufXXgPqj7ZMmt22Lr31QRaYZ9TtMcRgNuybWaYUbU39AtUktYae0mfSrb1F/wI2tspmjDc7AYVVmv039ia2zZ5DkMyK0nEZTXDvqT0gbJ9FYRrkyXLS9GDSfFTqg/sJSje1kt2Afgr7+7Sy7RR5bd9RzrM1toIv2I6FE+wkXi3+38+l0vi0Wj+RBYHm2qBiq2d747IH6UPijzgN/1HlgMtT13eE+1cIGwkSom9kKChK9ToO6W0xkp/zgNKjDfsS83SdBHXWpZOu9SVBHbbuXy3ES1CWEuXB4HZ4CdRelnumkxkVdTheCcEsw292cAPXct5yix1Hm2RAzJupQqiVATgCEeiY1GhF1JDsHCZUjPeYzO8qB+tJJElqAAfWWIqfgUG9uxgxOXX6Fyv/hPost2qNRh10xKRUOyKGpQ88eC8di8R8sRcf99blZ0JJ2aOowO7TTYPnQpIhru0Ef1MDUEVf3CTmFSRfqdVADU0fpIY5zNOWSQW05LHWMHtqf0XP1fpphqVcKzJCTDFmXI6IOK0JYcl0I6r3q1ys7zGyWBx1CFo8vIeVh6GQtgFIn4lurZyjvzCaIFgjqvQp39jBzWq9YqyqjSjEgqfudcsWZwdTbCSUiknrLK9ag3BB4+0IQ9X4npdz8atlCPo163+rGu9FrtVbVxAKVOqUwwtgAr7TR2WKIKnltsBRKqY+cO+oiwOfoyug8Z2AFSQil79iUyAVwOR0pUtZGmuNDyMBp+uqxCJFhbEk9FFUaro0u6YFW+42uahdS3lwRqFQlQk59jr0F48kSl9BeLmaaHGiVhBTmEYTrSMhjfUWhLvBM/Ll4/Ps8JnM9umVrU4D3p3drQXaDNa7PfTqCS5bVWKe548BFvv6Auce5/I7apR4BiiQzdDgkKq2ISsb1YTCXJh+fDyu+V4kGh5YoVX4YLA/ohbM3UNqGmpAz5xGq9VXtQlJKatFqPdb/fEKm1qH8RLwcdd6vVanI2U+Dfrq+bHhUBeUJy2esd9ypZUVQ77hE9hsqvwqoIih50D+EMcjic6TUgkQwt8Sgtfx+q6RReankhHJ9RnfpBlSSf+DwY9lx4Da08pdbw0lBdbXrb3oOI7unV9/Vsv/FcaFFSSo6SrBRt+ZSukOWnlia7lbdBKvYEdMEfIcsVdz90orUjZzUK8DIvitEccVDbOpfV+lvfw+4JTV20xuhAVnvuV7//b2xlHpj9c2ohrRK2AvJN0OYMO6T0CYgs4333fJfWE6DWbp1LMk07Lq0Igb8A/aq6dTQURhMUhUbsFTfx3D6AWnMGsfoh3oG+ZkqZUV+hQT/sviJrGfqVTsbqNfgoyxL90loqz6xdc2l3KXBNiIpT1P8UeeBP+o8MBnqzsOpsYOXShOhvs3qp4TF8DoN6lD06DO34KdBHZ6M84Jqk6COivGy4OIkqKMOiUy7NAXqmPT+8jo8BeqTkN4vk7vJf7GwMP8UpPd58AKTCqLMxyi9Twp66EYraJgi85qOiDoSBELChoiGJEuQ4UHdtQHwKO4hdGWLnIJjufmLMDj1rNLYCY+NYNJ7VNRWcC+8HUNThwY6TIhZLQI3wePgFdajDkwd0TminaZWem9iuwQOTB3A7A7IqZFL79coPUSltUHP1RfCHJY6FgRHWxY9Vx8dGZF+HVGzMOxhQ1A/1X/nfThV1GdQzRyWBlzg1HlK70F2gknNLRDUew2jo9SJW22e81XIpLF2Seq9FkZOYObUHRlcVmFrSlLvd7OBku2x3oBAod5rs0tFxcB22lubRr3ftIHM+J63C81DdjBM/asjkiWQldRz2moKznTqQtgJxT4B1x1DJ7pes2Q6AKJzwebocbc7WusNNy9O4917SLoJldTHu89WgBOlKKlB/WU4gNRfUkXg49PeBxQpF12/ro2rxy+pQqhiqYEKUa3xFO1fI7abEBJbPS1m2E9LxkF+jenX/RmtdDy+w7nFf/enZYJx8krWptji/N7n+WZYbYg+/uBDX1avidKqR5tX5oBMlLx/pUyVeQR0/OP33sVjjxCFUuD1tf4rd2aQ0nFB2CmDpojpNDlxHjao8MOY1Iq2P+IwL63p+LTba8XdK11IKr0c7MFa9Ttgrld7uoxs3qA8n1pWS/i8V/pp/aWe3Eru6aPOj1rHnQtKLnTHzg66HHekwI6+Sm8GcAcCg89xLVaKAP0kVtv2n/U29jRiLw8IR5u8BZu7tF6+HgJbUZsba0tVsa15FekH6AldzJ5e2gBL4hrurNTRN9uKOrzycrvRnXS/C+m7OGDwy4TgDZzU67hp/e/j7d9i7mvabrf71vx5uLg1Ld/uV2RxNfSvG6Du4XYIoFdOgM1DA67Yb/H1X/j19R3ei2qoNmvixjtgqxzfIiBjKkl3tdczLPYx80zXMpbk6mnUpvR6gcO3pzTzWncSBnMN2/Lf3fvha27Z+juu9i4jeEt1JSbA/2AZhK5nHyTiO7NYL9QLrJeuGuix+NgHJNnvrTv2z91BxFgxVHfZidU/Ij1MU/xR54E/6kNAwqzRqVCXng6KA1xwZyLUc7fQZzF5TYN6sTW4IOQ2ziSoI3rkXPUyCepoECargjAJ6ghz4ft1dArUlyj16+vw6Ki7ZDr/JPTrwTOQtVDQo1irH1+HR0U990nP0eOov2aMuRqQpwHVVqERsCyaOyLqiJIQkUIhotRcecGBugIWH98iuVBCezRyHo7L5TbY4NTVLFSOF+Ot1PTmmWwfhVd8aOrQxvZYLkmNktp+iEl9eOwZmDqSp4M2bK1+fYb1sYGpY/ohGCPXr2MpaYgAFsvVqFcSDUsdCySjvb0iQ4aKEenXEWUUQzHwH5w6VSPcFar160npGSpyPUxeKbkXzi9gZWrxqrTN1NyZf7aYEXrVTKHUCf/uMjnfV3B45iMdct7WuWXZa9FMpLNr9Z+vANRNMtcyyw4F7wMu49MuUJylahyhRIl+tZkF93Yag3w8AtD/r/XfawPnyP4mViAPAz3M91z9yDIytYGrK61zWQr/xuOvYtAdbyntDDjXQnTKQ+XVBJDp/HsAypBj25SDFyAXZGbAQyoxhhw4boCq9hZTw5F2cGyAZXjF6gNexFwHKgzbENuypCxkbcuwZ9HgQFwyqL4eSWa9ji3pAVXeK/hZ+KQQ9lyPtxFcVLRJ5kdiNvVuLFtsmJhKliZlkzBt4PcYWt7FiB9KjDeAfkwIefd5AxcN7Uo/qmCfFK4pv4QT2SYkp1WGikxK03z8hR4GK5LJT40a16DoJ6OhE5UCvOs+wNCEeLbJL3tlqISZNbWOOaNxJdMSB+4vbdq/ibC16bVoAbNyW6LsOPBEn7Xjt2KZiBI0Gitk2q4tr9b3Vl0PO5KRErsi5Eiaa+Wdc+nV7uNOU3ViGVw9JTKKIBzedA+poOKid5x3Xvy27E9SYy+qah2h5Y4kMYMI9uADzzFUk0kKaKqGk1osVYnD0grsrJBE9gLUX+dwBywvtUUnVhRdX+m6osSOaKeeBaL5rXoDABiLjjbykJyq7tg9NKfT7LkgqemXHeG072PqlpSea8cfrLhHa082PGqiWWvMPcbK8e1g6p7G/sbV4eonPWWYlWF9H5d37TrQQUucDb886KUap5ZWlj5Hx1mz0njDP/05g+RujFhM91ak/YQfp8vX5yNecv38vJw+wrkWWftUdFaB29mL+B8Pm8z+93KxTwAAAABJRU5ErkJggg==;" parent="1" vertex="1">
          <mxGeometry x="56.17" y="375" width="28.83" height="42" as="geometry" />
        </mxCell>
        <mxCell id="td64U-7Y8Hn7qM6U94D4-4" value="Databases" style="text;html=1;align=center;verticalAlign=middle;resizable=0;points=[];autosize=1;strokeColor=none;fillColor=none;" parent="1" vertex="1">
          <mxGeometry y="410" width="80" height="30" as="geometry" />
        </mxCell>
        <mxCell id="td64U-7Y8Hn7qM6U94D4-5" style="orthogonalLoop=1;jettySize=auto;html=1;curved=1;sourcePerimeterSpacing=5;targetPerimeterSpacing=5;exitX=1;exitY=0.5;exitDx=0;exitDy=0;" parent="1" source="td64U-7Y8Hn7qM6U94D4-3" target="3ne1QswCM8ZiEu4GHsYG-5" edge="1">
          <mxGeometry relative="1" as="geometry">
            <mxPoint x="116.34000000000003" y="348.6402092842036" as="sourcePoint" />
            <mxPoint x="150" y="365.0000000000001" as="targetPoint" />
          </mxGeometry>
        </mxCell>
        <mxCell id="td64U-7Y8Hn7qM6U94D4-9" value="&lt;span style=&quot;font-size: 7px; background-color: rgb(251, 251, 251);&quot;&gt;queryRawData&lt;/span&gt;" style="edgeLabel;html=1;align=center;verticalAlign=middle;resizable=0;points=[];fontSize=8;" parent="td64U-7Y8Hn7qM6U94D4-5" vertex="1" connectable="0">
          <mxGeometry x="-0.6072" y="1" relative="1" as="geometry">
            <mxPoint x="19" y="13" as="offset" />
          </mxGeometry>
        </mxCell>
        <mxCell id="td64U-7Y8Hn7qM6U94D4-8" value="&lt;ul&gt;&lt;li&gt;&lt;span style=&quot;background-color: initial;&quot;&gt;IDs type of sensor&lt;/span&gt;&lt;br&gt;&lt;/li&gt;&lt;li&gt;&lt;span style=&quot;background-color: initial;&quot;&gt;Creates empty structure&lt;br&gt;per sensor type&lt;/span&gt;&lt;/li&gt;&lt;li style=&quot;border-color: var(--border-color);&quot;&gt;&lt;span style=&quot;border-color: var(--border-color); background-color: initial;&quot;&gt;Loads sensor data into&amp;nbsp;&lt;br&gt;structure by matching data names&lt;br&gt;in raw data to template structure&amp;nbsp;&lt;br&gt;for that sensor type&lt;/span&gt;&lt;/li&gt;&lt;li&gt;Adds variance estimates to sensors&lt;/li&gt;&lt;/ul&gt;" style="text;html=1;align=left;verticalAlign=middle;resizable=0;points=[];autosize=1;strokeColor=none;fillColor=none;fontSize=7;" parent="1" vertex="1">
          <mxGeometry x="120" y="375" width="170" height="90" as="geometry" />
        </mxCell>
        <mxCell id="td64U-7Y8Hn7qM6U94D4-12" value="&lt;ul&gt;&lt;li&gt;obtains data&lt;br&gt;from a database&lt;/li&gt;&lt;/ul&gt;" style="text;html=1;align=left;verticalAlign=middle;resizable=0;points=[];autosize=1;strokeColor=none;fillColor=none;fontSize=7;" parent="1" vertex="1">
          <mxGeometry x="56.17" y="400" width="110" height="40" as="geometry" />
        </mxCell>
        <mxCell id="td64U-7Y8Hn7qM6U94D4-13" value="&lt;ul&gt;&lt;li&gt;obtains data&lt;br&gt;from a file&lt;/li&gt;&lt;/ul&gt;" style="text;html=1;align=left;verticalAlign=middle;resizable=0;points=[];autosize=1;strokeColor=none;fillColor=none;fontSize=7;" parent="1" vertex="1">
          <mxGeometry x="50" y="321" width="100" height="40" as="geometry" />
        </mxCell>
        <mxCell id="td64U-7Y8Hn7qM6U94D4-14" style="orthogonalLoop=1;jettySize=auto;html=1;curved=1;sourcePerimeterSpacing=5;targetPerimeterSpacing=5;entryX=0.5;entryY=0;entryDx=0;entryDy=0;" parent="1" target="3ne1QswCM8ZiEu4GHsYG-5" edge="1">
          <mxGeometry relative="1" as="geometry">
            <mxPoint x="174" y="250" as="sourcePoint" />
            <mxPoint x="160" y="331.00000000000034" as="targetPoint" />
          </mxGeometry>
        </mxCell>
        <mxCell id="td64U-7Y8Hn7qM6U94D4-15" value="&lt;div style=&quot;padding: 30px; text-align: start;&quot; class=&quot;rtcContent&quot;&gt;&lt;div style=&quot;font-family: Menlo, Monaco, Consolas, &amp;quot;Courier New&amp;quot;, monospace;&quot; class=&quot;lineNode&quot;&gt;&lt;font style=&quot;font-size: 7px;&quot;&gt;initializeDataByType&lt;/font&gt;&lt;/div&gt;&lt;/div&gt;" style="edgeLabel;html=1;align=center;verticalAlign=middle;resizable=0;points=[];fontSize=8;labelBackgroundColor=none;spacing=1;" parent="td64U-7Y8Hn7qM6U94D4-14" vertex="1" connectable="0">
          <mxGeometry x="-0.6335" relative="1" as="geometry">
            <mxPoint x="-114" y="-63" as="offset" />
          </mxGeometry>
        </mxCell>
        <mxCell id="td64U-7Y8Hn7qM6U94D4-16" value="Sensor&lt;br&gt;Data&lt;br&gt;Templates" style="text;html=1;align=center;verticalAlign=middle;resizable=0;points=[];autosize=1;strokeColor=none;fillColor=none;" parent="1" vertex="1">
          <mxGeometry x="180" y="190.5" width="80" height="60" as="geometry" />
        </mxCell>
        <mxCell id="td64U-7Y8Hn7qM6U94D4-21" value="" style="shape=image;verticalLabelPosition=bottom;labelBackgroundColor=default;verticalAlign=top;aspect=fixed;imageAspect=0;image=data:image/png,iVBORw0KGgoAAAANSUhEUgAAAMgAAADICAMAAACahl6sAAAAe1BMVEX///8AAAAjIyPDw8Pb29ufn597e3uvr693d3cnJyePj4+Dg4MbGxsLCwvHx8fPz8/v7+/f399LS0tDQ0P39/enp6cPDw+Xl5ddXV28vLzd3d0vLy/y8vIUFBRlZWWJiYlvb285OTksLCxVVVU2NjZqampFRUVWVla1tbUl6PFUAAAIFklEQVR4nO2d6WKqOhSFgTqiVFCcKg6obX3/J7y2sJOQ7ARJw3Ru1q+mBMwnkGFlJzqOlZWVlZWVlZWVlZWV1d8VbUeTmuR/NMjhB26NGjXGMawT46lzUyDzmkGCpBmOQc0crrtvBuStdpCxBbEg/wiINzWq9kAGRq8bWhBNWZASdQYkecxOp8t2oXvdjoAMdtAlvg71rtsNkBHbDhy07koXQJIvt6DgoXHdLoAsXU7BW/XrdgBkxHO47jysfN32QdAByqnyddsHOWEgblT1uq2DJMSK2D3efA8SZOQdTZYqnWA82DrIvvD5SZqnVpC91HKZdATkDPcjOwxvzCbP7rml2ncD5JKnoO045On4N/VezuF+dgPkM09B05Hm6awCJg+eQrtugEAr4meH402edrjiybXtBggYj17mq8ErM82zI60lp2nSDZAIkvdnOgYO2iKej2qOW97itA7i3Mk/DqsN+ZuxCyOVYsjVPsga+54Pla/bPoiTIiDV/dsOgAw2Asel+nU7ACJ2Q741rpsQp65xN54Odd+LcyaTZkryR6Fj9vBCb8pdY3jYhiR2UOh/PRuM4PDZEwylQRfH2AldVV1OY+OyIF2TBkg8Ps9qkq/tNWuA7Gudmd/p1jCVQRa1RnwQs6B+kFu9HK6r+XRVBhG7lIblNwRSN4duPJEFsSCdA9nMjao9EM1ZUpk84yDxfs1pzDL2BmSINRRLOvfWFxBJrOaURCb2BCSRNdxkyqonIA8Jh5vCCVKQ8O2x/8OYxjAIapj+PltwAg4SjbJIs81N18YyDCKdklqqQOIJe+/0uq+mX/aDi4sYnwhIVDwpWHcBZIG/7TRiQASJhBlSnXrAeDsS7UQUNtZJKG18F/K77x0A+Skap8IJAsjZFTWtPvKuA0QpHiREn8Utc4Zqhov2GFoH2ZJ/fE1OZIKRTnH5atMlhaewdZBVnjz+lCjewVGIwsFjdBgF+46AgDuUlwdq4rwKlvYUqOZxJ0Bgiu2aH4YnbZYlyR1SaN8JkI88BS0/3IJ8mit9AWTYCRC4I/f8MHdHXrHzHp0AIe9I3sO6F49KO6FUx268I06aJ73fJYcX/mpCyKqgvFpoHYQ07MHJH5FVIx5kjy9q09uD3mjrICFaUMbATd73ctEuf+sgzsQVNa+++LB9kPgqgmgEoafg1GkuJTVg0A2EEK7GlrUyMuE0DriRleYMx98kgIQXb8PpuGIifBAQJ2S7htN2giV4kAHe66aBNRjIc4QMPfjVsKV4CR4kRTmY0DMc5KnFeLh+q76swZQ4kIWEw73BCVKQlmXIoGtfr1qm0LvVBwnXfh1ahygI3uFwSbdcH6S2rSU2QwzE8fHcdHGSJsgWv64RjTEQ54x9c3e6LYgeSFxnnIGHgiDP8pZt4vRA6l02P0BBSqQHMq4V5N0QSBLiYtr4PoD48uVKd9Kd7wGI2rkCD7j7IGU2ScSDBOZkFKTMJTnzIPpRi7zoGlYTIHS3DVynvoCsXLUmfQGRdGkKn9ELkFg2DZwJJlG7D+KECp86IB5VD0AcJ3qMce3pwLcXIK/IgjzL6+9W6XLyENyZfoE8UjhxM+EsmjKQwZnfbXG0Zr6NRkGSb5fRsWgpl4BcXEQe/fgmQULeH2fjEEpAJMujj2T3igZBErGNYgOPlCBSF4V4pg2CIMEGAbOnqBJEOm4gMRnNgaBBcDd6XAlSl9OoA4J3GWjlqgSRbqRJ1us2BkKXLd/ewgWpg+i8gPpl53ZyKuRtFoSckhUdnhUad6QGEWq8THQSSgB5/75Kdjg8XCKhVCzI8C6MXqdn0mTN8hPyoBv4ioMXQZz4vLry2jGhfTyIckACMUwoCG5brIAE6iwYCcAHkfbdbBelZMuXYygFkW00DF1/APnM0+Ae1wRS6EMg2kpBUhl7fhyaZgigghtISmIWBH+lqOTmg3RfkvwrJy1B8daTdsAwCBIrW9BFCiL1X/KXhOzQ4s4SJyarQT5JScyCYAEcrMZSELR36jLB64xBMy+acXWAhOqda2CRAwIS4hPhAcmATgOmtCSGB1YL1ZZbK6hisOp3gBkwHjMXg7mYTDNkeoQYj2X7589oofCW/X245bRnB7SReM/YKJceDXUX/HN7YY/2CMT5KDx9QTFap08gTuzTm7LkStgrkJ9X8HSfH6fLs/B7Ez0DkcuCZOoRSCIsV2FP7w3IApmDOs5oO9UXEMlmpaQn1xsQWc+JFLsnINLgly8pSOifdrhO1PxGQbZlo7Jf3WXrMw0bdHtVANMV6gkMpGyUTHTRAJHuugob/goretSBcddYClLhV47wCHUlSCwbJxFDnwP5lOQHraUg6esgNweT+mWXuNgpedo5EPXsNBliVzEfROEbd5a0Iw+s3jrRZRQciL6LUhb8wYg811VAnhn41SqF+GoOpGzB5FAKIjMfEOGrBsz2taSh25k8+csuMR8QXfFwe8OdxrWq2ppDsbHq9yN9jWMpCbg33fv9mCxXuJZnUgS8ZV+sh6VaS8v1/+nGq2VBLIhMFiSTBbEgMlmQTBbEgsj0z4PMPaWAk+Q/qvNngrHd+NWPqaC5BKRECx7kJXkCSB2yIK/LglTSD0iJeVDM/KNqSzwh1OeV343S129F9KqXAbZlxc29cwMkqXNv8/nvR7xqwcLy6YrbrUPwA7ZTnSnltiy6ylgUcfseFbxOJii0/BewNEXDCKItCSYZKURa1GTNBJ+ozvgRNQk//LK8WtpW/qlGKysrKysrKysrKysrK0T/ARPVrpmyCiV0AAAAAElFTkSuQmCC;" parent="1" vertex="1">
          <mxGeometry x="159" y="203" width="31" height="31" as="geometry" />
        </mxCell>
        <mxCell id="td64U-7Y8Hn7qM6U94D4-24" value="&lt;ul&gt;&lt;li&gt;Given a sensor type, for example &lt;br&gt;&quot;gps&quot; or &quot;encoder&quot;, fills an empty&amp;nbsp;&lt;br&gt;data array with all the &lt;br&gt;fields that can be&amp;nbsp;&lt;br&gt;filled by that sensor type&lt;/li&gt;&lt;li&gt;Define events for each sensor as functions&lt;/li&gt;&lt;/ul&gt;" style="text;html=1;align=left;verticalAlign=middle;resizable=0;points=[];autosize=1;strokeColor=none;fillColor=none;fontSize=7;" parent="1" vertex="1">
          <mxGeometry x="-20" y="190.5" width="200" height="80" as="geometry" />
        </mxCell>
        <mxCell id="td64U-7Y8Hn7qM6U94D4-31" value="checkConsistency" style="shape=image;verticalLabelPosition=bottom;labelBackgroundColor=default;verticalAlign=top;aspect=fixed;imageAspect=0;image=https://cdn1.iconfinder.com/data/icons/settings-54/80/settings-preferences-match-coherence-consistency-512.png;imageBorder=default;fontSize=8;" parent="1" vertex="1">
          <mxGeometry x="269.5" y="319.38" width="43.25" height="43.25" as="geometry" />
        </mxCell>
        <mxCell id="td64U-7Y8Hn7qM6U94D4-32" value="&lt;ul&gt;&lt;li&gt;Ensure sample time matches&lt;br&gt;measurement intervals&lt;/li&gt;&lt;li&gt;Make sure all fields are filled&lt;br&gt;in each sensor template&lt;/li&gt;&lt;/ul&gt;" style="text;html=1;align=left;verticalAlign=middle;resizable=0;points=[];autosize=1;strokeColor=none;fillColor=none;fontSize=7;" parent="1" vertex="1">
          <mxGeometry x="229.5" y="369" width="150" height="60" as="geometry" />
        </mxCell>
        <mxCell id="td64U-7Y8Hn7qM6U94D4-33" value="&lt;ul&gt;&lt;li&gt;Ensure time is&lt;br&gt;increasing monotonically&lt;/li&gt;&lt;li&gt;Fill missing time &lt;br&gt;intervals with NaNs&lt;/li&gt;&lt;/ul&gt;" style="text;html=1;align=left;verticalAlign=middle;resizable=0;points=[];autosize=1;strokeColor=none;fillColor=none;fontSize=7;" parent="1" vertex="1">
          <mxGeometry x="334.5" y="364" width="140" height="60" as="geometry" />
        </mxCell>
        <mxCell id="td64U-7Y8Hn7qM6U94D4-34" value="removeTimeGaps" style="shape=image;verticalLabelPosition=bottom;labelBackgroundColor=default;verticalAlign=top;aspect=fixed;imageAspect=0;image=data:image/png,iVBORw0KGgoAAAANSUhEUgAAAMgAAADICAMAAACahl6sAAAAdVBMVEX///8AAAAODg7JycnFxcULCwv8/PzKysr19fXg4OAFBQXw8PAeHh4ZGRnCwsI3NzdZWVnZ2dmRkZEuLi5QUFCurq5ERESZmZk9PT0jIyO0tLTU1NSdnZ18fHzp6elMTEyoqKhiYmKHh4d/f39oaGgpKSlxcXEXt1e6AAAHSklEQVR4nO2c26KqIBCG08rUTpZpZSdrVe//iLt2DaCSMQjaxXx3e6/Q+RWYYRjp9QiCIAiCIAiCIAiCIAiCIAiCIAiCIAiCIMxxnK0P0SaeuqHjhMNpnJ7/8pHftVU4/NnlNHWk3M77hde1fWoc16ehXATg3n//xYzXm3oRL6Ku7fzCIApVZDwYdG1qDV4+V1Tx4NK1tR/x8pu6DMdZdm3vJ2YxRobjLLo2WE6wkhm7XR3W2S4YP2Zbzw9G2fKewpz817XFUrxlZboNN3/ZWPbbILnHkzRp20QlFuUxPowSqQh562Qm8Y/eLGm98+1Lr2OzR3g7/9knt/3yfw8mj/+OWvWa/rnYpaIdqnn0eoUlrzJ7PZs2vWZQmKzCa4BsDp2xoGQG7xh5tQaMCpFhhL5x5kiUMB1OZtLWWjvE4RHP8BfoO1UlXIczMmlsDbkQWIUXndjcu1WUCDpuLYX7e+F13HBjnDFyS0oEHa7mNbHkgo6z9kzZLyoZCDpa6lgZ71fhusF1Cko60DESbqkxygVEJe3rCPi8O2kaSwhKWtfhcz+4be61qkra0tE7cx1HA5crK2lNB594J2aiiKKS1nQs2Jh0TcXaopLWdHhs/RE2m68EOhGyZLds4j8KdNK1AtaxzqYuWRnslZWWDVie4WZqBSeZfltQMmMDRDWm252Gw1PNj6UO0boSj7lC1YzO7r+dn0NZQYfrtqeExbyx6mLh9Pr96cOfRR2jfmtK+EpIeeZ9zw1D+V8LOor/tKqEvRDlDIcPLaRTw6hseEmYNcAXhsqhCSRKpCkRb1t5AYKSrb2l7gDucVVuMoImsufbr+goKLHXuSL0C+EZH1luJ6vqeDwtt66JEcawvEXkANmoyiV/DCQ6BCXWEnTrum7yARaZSbd2IokOloKwlzKFfc45os0fCJE6UP+p5FZ5Lv3nJGAvic0moD2i0fXL/BBkfdm2Qj+zmPiFnhWq737w+eGXdqTfwYazwjRKQUhqyyw0PixEckwrFmTGdqzSAAJ4VM/qsQTYxJZdaC5vizaoViyz+iFq7AAYIgdMIxYzfogaP+Nd5tuVlSAFOgkqcAi4ENx86v1/bqGFKOUIBqGGyIgLwUXl7yTg1HwEDGMdN2gzLgT3cCHHYb6MCNwhyouI20E5qiEIMV8kcXhf+Y5qxbN5yIKgq1YrFSDWwKUXD1wIrpAGJnv1JZwqEPriuvqVC8GZBH0S15NVgFgDN/kI9U84k2BuwSwZ1AA3gnMHYqkm6l0u3o22qNupAOtPlBvpibUqQ8zGObgtF2elAhA04SKNQl4Xs08HsU2INPM7YA3O1ToFUvXGHrTB2qlsEk5IqbBc3QnZE6LXtfZFIerLfeha5qN/vcHey4u7H6Fq7DS2Ntj1pt+HRX8FJVPF9jD9ml9Y6jnEJ1nhpcRqfRPSwuaX+nohyn92W1GJWl4I4n/zyRe9oPHFOBWVKBX4L1GyMeiF8W+8u6hE5aVCA1SGQAlYWH3aDPzCXiiAVCnyg1QHJj2rht5SlzMQfKNCx4dfG6sSYeglHwQCXkMffg0PGt+tBq10kIjPEtrfw4Ok4fuvA9ZIDYYfrF+/r5ZgrJtfIGKs+MzLNyrEKeB+bXzCxKpQmlT/7dLQmX/XwYaIjZyp3rZCBU8lRIGg2bWy1a610fOLt9LaetOC7YObd4dPWMc1VgL4CZafNFGMK0Fne1oLmLNs7TuyggHLVWGsRMVOz3p0XZi3LG81g+sdWhuMZ3hUVj/jglWuuTLWCn37t+gJNQYWezALYC1+t7mDe+C2j3FAUGrTKYIztPr1Hi/OtHYXtuuoXMeqBdsTNFaHXcJnGRe7n1jzAmbzWYH/sCyFba/LS8qtzCms/NP+8RZsM21roXONJ3B1++Vd/LMLC/diT8lt4ctpvnVufB16YZe2HmD3Cp8mGZ6Deb3HppXvjXnnMvtdMP/atI2O9YRvQ00NhioLnorMzV21njO7paEPER8EbMKyULbxCZ9nPxt/qvtmwXXMWzx+Q/joeGpknAinR6huzplB/AzcwNwlnB6Bqo8wgPhhfmN/wv2HlSrGehJ+cydqtLgeCyVEYQfHComHPlRPzVFnMBF05MbMQ5CIx4nono/ni7uLXbyPJ4UDXrZanTsTd66HrY8PoHjkTt13rHJ2hW1rMxO5HkHxbK0I5R0XUaHxvFX/UaZ0LJWzUl7YDUrHvV27PoSyVP7jxEuFFPpxWTp8z82tG/qVoHxWZnja12o57tPyuZSbTrsVIDlMz4nviVTMMblXD0J0179yTGsQVYx7ME3vy2SwOI59f3xcDJLlNZUeOYs/YMwi2AMnOQp7vO2SaEmJf/DIRi9ROiFXZJP9yuAo0T9/ObJYZHhu5dQQTcbr9LuEJ+ne+iZ3U47rleSAEBF3Ve9ofgdvcFlN5CImq6XsK+NfZjzbH6I0nriPcTN0J3EaHfazn+9PBEEQBEEQBEEQBEEQBEEQBEEQBEEQBFHDPxLrRcZMvgVgAAAAAElFTkSuQmCC;imageBorder=default;fontSize=8;" parent="1" vertex="1">
          <mxGeometry x="360" y="319.38" width="41" height="41" as="geometry" />
        </mxCell>
        <mxCell id="td64U-7Y8Hn7qM6U94D4-35" value="&lt;ul&gt;&lt;li&gt;Find standard deviations&lt;br&gt;&lt;/li&gt;&lt;li&gt;Used to do outlier detection&lt;br&gt;in later steps&lt;/li&gt;&lt;/ul&gt;" style="text;html=1;align=left;verticalAlign=middle;resizable=0;points=[];autosize=1;strokeColor=none;fillColor=none;fontSize=7;" parent="1" vertex="1">
          <mxGeometry x="430" y="365.38" width="150" height="50" as="geometry" />
        </mxCell>
        <mxCell id="td64U-7Y8Hn7qM6U94D4-36" value="loadSigmaValues" style="shape=image;verticalLabelPosition=bottom;labelBackgroundColor=default;verticalAlign=top;aspect=fixed;imageAspect=0;image=data:image/png,iVBORw0KGgoAAAANSUhEUgAAAMgAAADICAMAAACahl6sAAAAhFBMVEX///8AAAArKyt7e3snJyfT09P5+fnX19cJCQmBgYHd3d38/PyAgID29vbq6uqNjY3j4+N0dHREREQaGhrv7+/Nzc0hISHHx8c2NjYxMTEXFxdVVVVbW1uwsLCZmZlhYWGnp6dHR0eKioq8vLxra2uVlZVNTU09PT2qqqoQEBCgoKC2trbZb89VAAAJd0lEQVR4nO1daXeqMBAtFpVCUXBHq3XBWu3//3/PPmEmCVkgpIDn5H6zIkxCZr9JX14sLCwsLCwsLCwsLCwsLCws6mI0HM7alqE2BvvN1bljvdkGbctSB/upA1h8ty2NNmYbh8JH2LZEepglDoPLU44kmLDjcJyvZ1SUt+I4HGfctlTVEXm8gXijtuWqjJg3Dsd5b1iMKE7ceoAXsh7P58c1GOFmx+Gv+fOpgUX0f2IW+We/0YFwDI4uTo87/uSfG3WLI3PjuGa3DK7ZHxq1W0NzA3Hze+Zr69jkQEKu6dSClznzWf6Hc5MDEdlOHWRvANzjT6MDGXyYG8nt94Y7+Nh0ajIfv1XDOwMXRE/iFMPHS8PjqI+dw8W+bbkqY+DyxtF7wvD3xBvIsm2pdHAsjqNZ22sMhYykUWdoEt9Xchjrbdvy6GMUw1CucRvFrTDyh0M/MlArCL/TSZIc4m3DdYdgfk4nCwi1vMUk3fWfzmSObl/UooZVsbk9U83ztOENIn81m1Pb8pXEtlBNY7F6BqMzX6mG8YvLvG05FQjTMsP4RdzpmuecG97x4fbbllaMXaW81ru1La8AQWFZeZd0/H2a9/vz036crgrDjDvpVgZftJSLeDlgrjjFU/qazYB/rzYR0pW4rxN3toMf5rLOqTw9jolEkZcX8spDx95JQK6rtaKWuSfLwZtu6cknuVyUjYvoQFyeNiFfWZCpaJncLXgnftCh1tMWpfJKhlF7whY3WzGUYIhCXTm1jeXbkfPXE/GjZhsdQoQ92TjC/yH9R9E4ESNJumGEsbjrcTKNzN3HxW+gYeM4n38vpRo3lIejH3lbweP4iz3+sgOcDB9TWp75gUYPTw+wWnWN/lpOFQL009z1Aa03bqqOKfGlbb84VmlsFrp8cb8k7ETLJVAfTI/Ihvr/A96pYOmg5fZatcHEwhKq6yherV6FUQuaisnfiFgO2ILRNqCoJi0mjBFYrIV22W0Guda1PZYMzmaNmhv6xdbcIjaSaoXimAK01ITC1t60Vj13BHlW0o4zQRdSswKKoUorzmQEms53dhVwAH1vo1QPVaz6rgzdagt5bx/Ww5v8wihOklhhWV/hZkNzEpYELAdXXtB5MOim8rcWAituY1LGMkDrr9D0LGg8yK/6bssEBxC2KkIkeRiPgKBtZU7IMsBYT9EckCZWBOZww0aTRVzTKjMjS3UpgH9fNFlEBV+opkNnDLpX1XVIt27QK87AFypM70vOoPtUTzOY4LWh4tDsZ/z+tmN7GxTeKz1zPh6XaX1WmR01gm3eHrh+Cn0TBidGVwGsVwOBSp/qLaeC+QbiqFm9HIAFUSqUCt9Ml6/HLRmgWu7rPpAG2PS6ueLeYbHgjQSiRdPpA3pZToG1Auac5nJSXDz4QowTMSBQqbXJZdArjoO32wQ81x8EE8BiqRPO89m1hbnx4as/IPlAKOrVqAUTL8Ql2uFxnwZUTlz4k2IdBL6vUKbRMLePYDX1XwkmSr9ZUDmOT46JLCL83dK5kKmTf3ddXvxQRizMaKed5/wOD60IuRojwlT8UjJTKB5J9CiifDw+Qbteu8iVG9VrZqe2rLBSCO1lkK1S8c6u3L0+wpgl3FI36c0baHlJZOZUgdCCgW0Qam9uqbI20SH/wceTDwQzLE0+FyytzIBUW1rC6CjIAihXdAGztF5egAyiWS470zLNTCl7NiFiUsDooUWg3Gg+9eoQuD0tvUu1VDJFSXzJ3Nf2/k5cGbnBP9zN7yvGQtDu1tyyQ7yCBUHfiYcAaMJ6yyEJVfoQqdz0zCdDOpxSvWCO6JcTIEKUQemKQ01ANOdqhdcBdzURaWeFikM9YHy90/p9nxPGr/CdY05dO4FTAVLQtV7SW7S4ZGJV9+4VMKo7Z1vmnSTEOPwm605AZNNtWQwp4iTF+gY/1UQlMIQ8Qrs6//OVzfw6pSYDq++N1GbRhOqnb+Fpdzze5rTlw8Yn66XC/ftZ7if4DDoC0fn9m6k8BZAPGd43iexLpmjY/3UuMpa7kEEH+M+od5moHTMso9xNtOxMvpOX5cVTLmbQZcgyELbxBSm1USoXaDpbFMhLYcLkQd1WyCVm4hG0krqJCQfoYFhSb17OTkQ/VTd6eopbG6TTIu+l0PjMg39hi1DdesstPqtn2ExamCKhIlmkYAtz5RFru5RB94usnlYM4NDi16ugAtCAcLzTw+BLmPpyBt0dwUNJ9sVvcOOAkVYvQajiSbP8SA43ma2XM+juCHaT5IPXCkJbaWRxIT9ZL6iuAaTtGMiAsNfQPKOVSJFqV/6Rn+w1TxMhUqS6bnGANeBWtnkgV/tSL+hGy9sOVXqAi6uWmmDPpK09HsTelBp0WuIYj9ZIuTiXnrY3GeJGBIOBW1WgW1xrrooI+1auuN6w3PQuO5n+KBl0wfnS24hnewYxF7/JrMQId0J74sL4483LQhQVgy7bwiheu0S3uadRUYuIHd178VXZQ8ROX8mgywJoSdWPqIFWH4mPL1RWXMrDeCGPrnwYLwmAiMPG3Iqra0mUsWWbUP8wsSIQHFCadaVDFm5EpU56jmvOVTCf6tJ3IZrM3r7EALKfkTtvE2mBNMw0STxNSgZdVnzoSUOQEXkGg4i1VLgz+SNXoV1DVzFJagbd/9ffU/iIiNBZp1eKyEYdeMAnOlGCbo83+WCVDLrR7rhVhoTUSJxUVUgPx9TRozp2+68QUV3N9Vm2vmZH+kyGSafO+ZlRFXZnOhZIF5w+ma5CCWpooxh80vJ5aTGwGZxS5oAMx2s8RVdjzMjoLNITNdsndhR3c9XJ033mi4KgC+K1DIvdw64e7TMrHk5EdLU+2e+SDh+CuCxwMjAJZr6akvkFstsECIcGGXRlnhHsmNOpkdFD0eWmpIUm2W38R6SeSQZduWeEY0qnsYlGnAay2pN3pNltPDxCPnMMupLPCG/E5GPcHGZFl2nMpIIsBamAnPBmjEFX/hnz/ESlFbGCZvHUS16XhaXMkMKKyAto5ohnFZ4RLF8Tb1rKviofcmxgIMpnlEDp126QQVf9GSXAstuK+CgqIo3KDDqNZ5QAy24rYBB7phl0Gs8oA5rdxnuMb5hBp/UMCwsLC4tWEZ1fnxQ0fa/asbDdAknf4/7vgucBFhhkZ3E/ATC5rLRXpHvALtNFfXGXgX0/wb9ceRagtgdPrSRkjzPYTXpPiomUvmdhYWFhYWFhYWFhYWFhYWFhYWFhYWHRAfwDpwmLAhe6rDcAAAAASUVORK5CYII=;imageBorder=default;fontSize=8;" parent="1" vertex="1">
          <mxGeometry x="474.5" y="319.88" width="40" height="40" as="geometry" />
        </mxCell>
        <mxCell id="td64U-7Y8Hn7qM6U94D4-37" style="orthogonalLoop=1;jettySize=auto;html=1;curved=1;sourcePerimeterSpacing=5;targetPerimeterSpacing=5;exitX=1;exitY=0.5;exitDx=0;exitDy=0;entryX=0;entryY=0.5;entryDx=0;entryDy=0;" parent="1" source="td64U-7Y8Hn7qM6U94D4-34" target="td64U-7Y8Hn7qM6U94D4-36" edge="1">
          <mxGeometry relative="1" as="geometry">
            <mxPoint x="322.75" y="351.0049999999999" as="sourcePoint" />
            <mxPoint x="370" y="350" as="targetPoint" />
          </mxGeometry>
        </mxCell>
        <mxCell id="td64U-7Y8Hn7qM6U94D4-38" value="&lt;ul&gt;&lt;li&gt;Use median filtering to&amp;nbsp;&lt;br&gt;remove outliers on specific&lt;br&gt;&amp;nbsp;data&lt;/li&gt;&lt;/ul&gt;" style="text;html=1;align=left;verticalAlign=middle;resizable=0;points=[];autosize=1;strokeColor=none;fillColor=none;fontSize=7;" parent="1" vertex="1">
          <mxGeometry x="520" y="362.63" width="150" height="50" as="geometry" />
        </mxCell>
        <mxCell id="td64U-7Y8Hn7qM6U94D4-39" value="medianFilter" style="shape=image;verticalLabelPosition=bottom;labelBackgroundColor=default;verticalAlign=top;imageAspect=0;image=data:image/png,iVBORw0KGgoAAAANSUhEUgAAARIAAAC4CAMAAAAYGZMtAAAAjVBMVEX///8AAAABAQH+/v7z8/Pp6ekNDQ329vb7+/sFBQX4+Pjc3NzY2NhLS0tAQEDw8PBFRUXLy8vi4uK4uLgTExOrq6tYWFiTk5NsbGybm5siIiI2NjYwMDDR0dHCwsKIiIh+fn6ioqJdXV1SUlJlZWV2dnaLi4uWlpZqamorKyskJCQaGhqxsbG9vb0zMzO/FH3yAAAWhUlEQVR4nO1dh3qjOBCWEMQCF4K744Zr4pJ9/8c7zYxEMzg4a+NsuLm9fIkNAv2Mpo9gDEiof4oYa6220xdeH7Je/nwMWoiAkJLFJBji4YwQDcuynn2nVZGeaH/vMCYFS2GiAPFD/Np1Lbc2kMDjp8mGPoAikmzCei8AmsVdi9cIEcIEYDn1mIjRAHiWcIDFCZNakWtZLv6yFJIECCwaIbf0dc3QMKQXz1YIUjLwjxCBL4aTwPftupBvO8FkQ5NXrLJlHuHB2NLwx66ZFLo1IdncwdxBYISoaNT/PYTD5X8Cxpj4aoTfRgBCMIXVo/gEZaxkdp9WzdphonaAMG2SDRVLKDbp2/AJLBugtV1LRJCEsAETtXaW8JdDiMyQR2oKipq2MyN5quxYNiIdFNRPiiQI5Akp45H6q8/BUtnpRVVj2iEQJ+X7EjjNZ9/Q86lJirjJBujZbGTtmYTJNppnAzZGu23y7Pt5Pgk2QVtkzKYITfDsG3o+CRCwCoupkq4Aif/sG/oJ5CAkfeaidLVrLkcYcEkDIXGZ6wIkjWff0E8gmzxizSX/Q6KoQe7v/5DE9D8kF5QLSWyt1VHc5kEiMDJNAcgahtdyIRFRhFrWkE1yIZFCekANWUeHJ1+WMLt9ent763d/iTAR+F9JKtA4jSl+/g/HCoSIFz3GCUVZsVgESQd9nn8XEuAKP5jsttvdJHDYLari90Iy3x1MGu9tPGflNcXvhEQwJ4zzmvBj7JAwKYHLb4RErZH5gXM3lfA9LdTCKSVPYkiAfgkk7JNnEVF/nZmUZTD5jVzC5lgyZGUxWZRzUH4jJP5RIaIoDYlF+aqv6bdBAsp2zAvK7Nal9PCvg4SWTS4iJXOZvw4SybYgSfIAsfi6jrJEQoDdKlo5paTJb4OEoQIupEGJAX4bJILtiwGxeFhiiN8GiWTDK4jwYQ3FK2Ov17jk1fsak+ohEbqERbvrd45RCdb5FyEBeykO794XE8Ha1xbO5kf6OMlSOPmAFEBYCIma0a7EAE9ZODJY7Yab9bLXZfdeOYKdiyEpV0BTkMd5ECQSQv7d5Sm6xdceuyHeVYKE6GI5b66pZvFWiSGqhQQ4ZBQtbKRpwO5ZU6rWYaeoS8TiHa/EEFVD4nTS/WBYDXbPtYOF7/k+DuerMiNUCwlrviXvVzdLhXfEBBQZsEkunxy8MvxYnXjFNMKJq2WewASu6vI9u2tB9hwbjjKo6DrnHwUJPMC2Webr997nIJzRvXP+Ke5aWzrJiZi4iHwZSV4dJOpuVlBJCj1ALboz+3wiTNy79jKg65dhE/X7DqLRPwsS6UEJmHpaK6F7opRC7oDGdPnorpAI8W7WSkx7KhH5+vTqkhbAJFhv/E7Tp/9tCB2rK5XRjjdcii2mCfmt6O2ztFFYpfU6IzcjmbCWLKD77t31Sor8yTTmkNnIL18JXyEkVGLLg8S9wa9rbGgo43zcQuoSdrDcTA+H6WYX+CXXDFKFkHzi4p56iZQbKJpPvPL0zu6f9rAbjmPrC5U2fiqEZIWthGFqTasb9ant5e4ecRoDI71KUIWQjHDIS/OdVMPPqS+tFhI1Zi4kUL5/z0v9FVW7cDj1VqbII1Pz51STVuj29TBXvUkZkALaX8AuecuHRESHVUcVQtIkc7KbUcIhdHrwj/g4qDFNACREKTP8flRlcIAjm+ySz1xKh0zaVbxtCMIxnwwPrntYT1qV96RWab0uuUuVL3E4mrENiZJkv5gQq35seR7OFWNSUAr8CB9HMYSL/sw88eDHwDgusI45TEmXPtebidBWO4dm1sp4KOXX0DOPcmZ3hQTEhosxtXczvWaHU7mQ2fpB+e+grF0IIoDvA16yC9nt+wZUrlIBlzwAEjWrhqsxOY2CrtPsbWlvDIgNSAOJDMmDxeNcl8JuxnuuhKqDBPdro6244pCXhQGUjVlI6uc7HJKMieERik8qM1y+CclNdfrxSVj8kdh6ysLLTmWUD2ULrmPJr6u548zBw7dwS5EyGZj7UFlIwDhImAfKcvhOY4qEKaOowAVDgdd1In5i6yjb26dGXJw11wwrM05Kcwlmb53FfrvZbJef3e/pAGWCdYdcB9BJrIDTE4O7IibpOIwWivqmeTS6uyK6gUtYsI0yl/31gn1jdQOjic9NLCj6SycZNpevqHePjhpbUteYZC0XP1z//WTLUSlIKHL8QfLQRDOHOTnuHM5JfwAzZbI5Gb8ejtNh2AMLLbEi5mSP9JhpFcHID7IOd7v3m/VVKgeJYvgF5Ok47VCn92/sMZlmFBA4sMlSt9v16bwca4I+afi+f8llE4SkkznJPnIKz1YjTUpCws56J0vcrdAlG4osqMRgYOMFy/ah//Iy2+znsjDiaaptUl8qhLZ4FxchlZDrPGklxklu0iIDiUBFYbkZe4L4JDWa6CUrxdqfhe1jIsfhV3+3TZ4y/c0ZV86WVdO3XI5Lun3aW4u/jQeLYAD9UFRu201JD9Qmxu4AyLZdkJI5ExE5s1NX7SAkrfR3Qm/ZNKwGkWs+Drp9ZEABQ4MY2evqYuddC9qhTOwFuiDVQPuEWmhxHeZMlDZghEeld3mQcISkEgv2OiT65gIUJNT4BKR+ztFWsMDTNze+IMWg844ubaLbn5f2TnDhcH6x1w7VWln8oyJ3uBQka9q5MMDCKrQWPHRX1H/r6D6bPCqmOR6O3Hgzb92ymAgIFQDts1wyRpiXFbl+X0EC5OD8IJXNIu8MdlFCRjEzBjmA4Y0/g5bf8FuTGaomFwqSS/E7jLJCdphmbHfnhDfzWY0o+RoSYeLIp8xGSeIF73/ACKmVLhWZmPtu7FFLoapOn2hiH1J6ntTamAROkxyaQdTpjEMv8YmcyvVc/T19DQnekgUV+ZmHhJsqYzxMTcB/w7iPepRG4EqAElD6k64K0Hk3vxduDm+z9m7go0mPmIgNyaKm6dWUZADA0B9VxdXKQEI7fp6zK3yBkKwlLqMB1aANYGraFMe1Bar4M3VFDLh3dwn7ZdsitUR7zgJnnVpau6gfC04wzX8KJLocTi2ceRaSFqeqdJz+Go2RNllgxAhq7q/oAXyw9InMw8QfBVZxbe0aJoa04RRPe9fyx17yiEl+CCQwgw7e9zx9ohAESaeBu9eTj7zIPEnSnoeUeBXMbxuLLrKHQS+h9Y+KjOz382JxHnOt2U/OU2OvaSUs2AYtsIuiGFo4QxQCTRzmJDOWg9PH2GnswwIL+Wj7YgDJ5VH5FGFCzlSqMJY6fhfPDTRmIQnxyS2zC2dixKsQunusnR1dktMyT5zFvCnxQcJhgqXy4pDmAUUMyhs5CNW8Swr4B3EJsD/c1SGd2xeM1soEf6etuLcZZ44kc8IchW93phdx3Os63U9sjABh0UZNLFBRwbURKItQCViF++2UMdW6lKOM7Qtc9T0KnjRR6/aQG4ZZESiG2rWNPkCfGi65NmZGwygfPb5SR2tuClfx0HFVFom+oRKQoM9u8ZeWsTnAHrUpF/dK4iPAYf5kIbGnOGwcXRfYZ6Y+27M4BjegyR9t+luNGGxjFb1Ty+6u9Y5fUSlIPsk0+NM0OTmlNQ4YSVLWCs6jG8nIFCYtHCW2ewWEEoHCSFkzyu9xtHzM5dX4vf14vR6PPm1Wrqb5flQGEmgOw3B6/2zurdenvR86HtnjDXLrsxW9IXFSIoBAJu8BSww1ywnTj7fVBxlJGjtUT0+TX3AJZelgdXcmQbM5X2EHCSz3uZ4pVAXAAA5mdU03Y4vURdwqJRgyF5RORJMUUcbrpXi7WUFlkHa3iVFd8a3UWkkqBQkFyV0TCCEdAVbFxDxondrkbYkBd7LOfTJ7eSK07pDETC4wNHVJMBVn9GDA+R6iuv1jJ1x4t9Sx3kqlFo7UhfpRK43u7VgyEaUWtmDiWnxjM5Md7bYxZMLHieepLV47VYmEKxMbLq7c6CKR/eHTgXzcxoDluAS7JOgBYxiRLK2JSYLC6m/pZO5xQOzvTE508EtyvzodRZWJhywoSATsdC68TeeDdLKrC094u/kwc7acLIHPAlSfLsHCqSnPBIjh58QE1Q7j0Wq0PWj4MPgRDUOQpPZ2F3oXlljlZEktSyq/t0xoF6j3KKmbl7TIhUQyb5DISHRWdtpaEHKcuF9NLqjbpNwgr+6PnWActFg7eGZ+2ley1ls0HKcEG6zg3oOUc3kugU/n79vX6fR1vQ8a2QyCkN5YFz64biSLeciSukH4lDBsJs5GK4RWZUGK07x6AzhweqAF5LoPi6CUhSSyFqRtU3Anw7YQpV7qxeJG/YbvcViRiNhhnzxTYgAKrJWCCumtfj/c7L3l+H5z8KodoINdet/FW6g0JPhFwe/mLLbokB2qH+omSBhedNIIg/2nLn2uf8gjnjPOGZTpJldwxY3ZIgf6k5GJWt6VboLk4oaznMK83tAUXJy2C8kky7BSkxTTEK1eLJiQ4BzzVE4odQabEs+touotiYklsgzZD4Mk5/6VORKsluFyFTgEWSaiholDCD7aJFgFWb4osXOkJXmUYN1Acod0PkjVHiUbV4+QJt+GJKkyol9TAkZnwVJnSfQEYYrTQMfgmxtdu1bAJDuqS/KENuopdL3m9KaWHwKJ9sOE0wqCpk0zzTko/pn6mNxeNXhn1As+4XV5Lqqh3FY2df4BBfIgyquRuauLcx7xEo5vQYKSdHckmfE66rKbrKY1tzIGDOioaUPkIui7Wj9nvjvhDc+zJ9yBvgcJW8ySqmVbOu8LZ3sbTiXBMTIuP/q5YkEar8jPXmGIQBa7AN+nb8mSxpaMSLJBYFKT8h6Hkgg7is+jF0kOZLtRJCipkGIjsxfY6fV0f7pSclMAicC0NXEIBU2wZ17kBjBEvhjuuWbFEJesspGiKIqEYTiLt73s6GO8eoWQNNpFkEjhuEZA4qlgu7tQIJBbqmdeuZoxYrxVtLGzsrhwvilM4jo2rNHgx0xmS+iNW66FE75LBe+08AohYfIPPV/wODavyCRYXBPmHUto+L6Ho8a8D9mwQbgeDnerOdNxWLQ59KEyDnxTa848s3B8eiqPKPy8HZJQO6RvFBjpLo0XdmlXgH26CBHC03CVSD2IRLVWVErhfYZHMnsHjqmGFQxzjVwZ+2lIVnh/RV7RX9HNkLS0RFxG83c2VAg7zaYWlEiavMXrg4+7UYg54ZzoOKr3nujU4rsuZkbg6AGppXk0KPyDNx0V2TJ/S1cg4Zdun8A2K45RVxnVL9trikCmNSKkY2Y8znPCs36XOTJYSl1pzKNyAtRhugzMcTFwNfMZ7dYHJrFpf3uEWXIbJKBtaHI7ZvoysW5ghkb3a+bYlS6V0AS/DXM4HWTMyOCmIVE/1p4WziGxSadJ/oK6rL2hgR/TfXErJPQWSO5HCsSkcV03GwJ6j/K6NFksH+5cmmSSSq+sSIvhby4kEgWwonOiSHf/naRR43yMYkiPoFsXzs4UaUWQAD83pjjxqN4CvjmTNQfD9N8MD7iXexULSoloNjlRbAGZYM1oQwkKmED/23q/eoeoLpVb3HVrnG9CorQCid2LIClVuY8S3l7LhEg3567v+8FOlwNg/00ak6ax+dZwqLMwxq02xCRkTFLNbRYVkHsPCardCok/ywuSmkjh2PjEQtfKWvzUk6RToJqc4oUXtsQrpVffFgZPiBcgBuRmS6pp1CkTZDyQNY0HdYXeCsmR8zyfnGpCtjGXBBSFxcy6oAJiQYuOhxlpsqB1MHVM4lQZz2PiE9yzATKqKx7by0RL7yKodyfK77QokiXMPuS56sglFthTkd3xgTNwW5pF6B+tOitpszGmCyaxektb/3h9RECaU1vrJB68s2Di8ZCUEq/KHYTjgiwkZNLuIzFh91EzJQWg+q1Lz/qcGJAJmyo1MtsntmjqZp8rJcIXYx2g4f1h75EFJ7cq4TGuh2XavBa6V6UXeb6U1Ts5CUgk2nkWT20FBaEXynOkt08U4gOXYhiF0tT/znywD5erxYM72m6FZEULImNxLWilN/XCMe1441S0TVAzBgdPP/HZBJVVmA2pUX1oxwRvRbIJl6zEh+S12K0Lh+rWOG7ylByEllMnRiDk2nBIxkvwbEhJxdJZmnDzKquacZHxkzlfGF/otqDmd6hgsw6PqjNz3L4tqcMeY/r+JKoSN51CoLLFbO8fvZc22aAgoP2JW/yiqlbonOh9ZnkTFUXVCiEJQBzQRouSEPE/yJI62ElIuDa1UpD4uHCStWvm1S2ZIKry9gwkj2WJHCpeOAWQEKNDGG2B9Ub24MBpR41k38GI65Kc9ISocGAaSSL4doki9z19ERNgnN1rnjfQrZBQmwnVmbyswx3KHLQ0P/T+8njYmepIvMzCIfNlnRxOfQaLbpO5DEhdi9ycu863BF0Xr5euJpWlmdJ/JPI42jLxNkVjVrQSzdWADgURUnUDlKRycdcooaUnuMAz1M2TH7Vw8iEx88WGAPI4sJCv3fCSb5iEXTsVVsNk0F1q3smOSuhumVGz+C65FTkEzYq6PpN0MyQwcSexbyhRKGVykVDPAcf6kvgzh+v0bmo89HPJfNVBKWlqiPmU5aZCHks3QyIxW71KAQJlazK9AYH/guNCvMBQi1ZIZsMaLEHCQmuzSAQ6jdhn8bB6tGt0+8LB75kcREWXu+DiACmomk+J3bYew8cOQQVJR2aXwp6SxHyjD9Uvq1SH3meON9K3IKHH6bV65/PCOLDpr5V8bJuX5x3CwWBiWu8xI5MJIbEZgaXs3+XgPNpomV32PXv3pm9ySeyZ53roIA6cI9f7YxGB2ibrJZO4wzeGRQWtWotZVe5rk6bvcUm6aPUy74kveekedRsa7nxk0bs3Bpel3upgHWqMw9HcIvDuONPS9M2F8zWp6TibeH76ZSSLgml2qe7P1CKoQ/t5RUmV0MMgQRmMey1aXO/Izz+cgtfXqkP1zvHmdaY750k88lAugQXiT6JXX512LQx75B4Nxs57dOgxbD3g9Upl6XFcQkkv5jUHozBcruY+i2oSc48VrNEd7MNwv5rbjw+KXKHi4MBfQ5KVBbfM8Wl4sGshpL+H5BskRK5Sr5QK3mnxLEh+Al3nkur2ivxB9EDx+g9RquzlOiSfTj1IytKQ1IRevKQVdA0S6/pAv4f6qVTjlXC08TdiSv1R8RePugRM/yS/gkREplpm2N8KSd/7SrxSAKhG9PI1JOrjIX+pDblHL+l2F/g4daOk211gvdaZ/ofkgv6H5IIiSFAf/ZwXXj2R7IhL+P9cAiSQS5SRynCbvIf0mP5rpIt9+myKXHKZyqwdmZ2qp9hmU+6d97+eaKPFsW4q2cinZU9+DMm2rrNrmcrVu74l/F+kZlTD28eVs6ujNZ8mEiEnZmoQL1+eUDfSLSJQKuSQnzxzdBtzHQlS+7jvkssxNwkbGak/1zbL75WvAQlhD6nBFxqBBPSLgB3Lh85TM7JPJWdI3Zx98GyE3tnXcvkMDLZaQhJMdYVYz7R249LBLuCmflVAnUg2x8gSltmNFoXq1mDCh5PAsWtETjDRVYMWVCV7RpoKqTGpTQInTTpe/yFpXwgAhbpPuakBrxdFU17K6GWTtHh6fd0Lb9Un2UcJPOpgP2Xe+wZ/2CRk9evXqkkvlfnikZdAUYGrBjY9TKX+qATIGemdRGrDJlpI9PeOLtlNMQmJleZqPO1fcsmvJbc/HQ9aWu9qRP4DfFQzcySHhR4AAAAASUVORK5CYII=;fontSize=8;" parent="1" vertex="1">
          <mxGeometry x="563.5" y="319.88" width="40" height="40" as="geometry" />
        </mxCell>
        <mxCell id="td64U-7Y8Hn7qM6U94D4-40" style="orthogonalLoop=1;jettySize=auto;html=1;curved=1;sourcePerimeterSpacing=5;targetPerimeterSpacing=5;exitX=1;exitY=0.5;exitDx=0;exitDy=0;entryX=0;entryY=0.5;entryDx=0;entryDy=0;" parent="1" source="td64U-7Y8Hn7qM6U94D4-36" target="td64U-7Y8Hn7qM6U94D4-39" edge="1">
          <mxGeometry relative="1" as="geometry">
            <mxPoint x="411" y="349.88" as="sourcePoint" />
            <mxPoint x="484.5" y="349.88" as="targetPoint" />
          </mxGeometry>
        </mxCell>
        <mxCell id="td64U-7Y8Hn7qM6U94D4-41" value="&lt;ul&gt;&lt;li&gt;Remove events causing&amp;nbsp;&lt;br&gt;bad data, including&lt;br&gt;&lt;/li&gt;&lt;li&gt;Angle rollovers&lt;br&gt;&lt;/li&gt;&lt;li&gt;Angle estimation from&lt;br&gt;quasi-static motion&lt;/li&gt;&lt;li&gt;Zero data from intervals&lt;br&gt;of missing data&lt;/li&gt;&lt;/ul&gt;" style="text;html=1;align=left;verticalAlign=middle;resizable=0;points=[];autosize=1;strokeColor=none;fillColor=none;fontSize=7;" parent="1" vertex="1">
          <mxGeometry x="618" y="365.38" width="140" height="90" as="geometry" />
        </mxCell>
        <mxCell id="td64U-7Y8Hn7qM6U94D4-42" value="removeBadEvents" style="shape=image;verticalLabelPosition=bottom;labelBackgroundColor=default;verticalAlign=top;aspect=fixed;imageAspect=0;image=data:image/png,iVBORw0KGgoAAAANSUhEUgAAAOEAAADhCAMAAAAJbSJIAAAAeFBMVEX///8AAAAqKiqdnZ2np6f6+vr29va9vb3r6+vz8/OCgoLT09P19fXn5+fk5OTX19eXl5dGRkYkJCRgYGDIyMgvLy+QkJA9PT22trawsLB9fX1ra2s0NDQYGBhNTU3d3d11dXVVVVWJiYllZWULCwsdHR1AQEBRUVFeHXOPAAAH4UlEQVR4nO2d6ZqqMAyGRUAUZtzFDRWXmbn/OzxupGlJAY8IlCfvv6GI/WybpmnKdDoMwzAMwzAMwzAMwzAMwzAMwzAMwzAMwzAMwzAMwzBl0A9GdVehBE7LrpaLZS2Cuiv4Jl8/Vh7fddfxPeJcgda27jq+R75Aq1t3Hd+jgEKr7jq+R7f1CletV9gZt15h53ttKzjTdilMozZr3fUpnVS/rbtCZWO3bhwqOO2zNDKEwHYpXCNhf21UiOf/9bqFCj0k0BEdtu5qlQcWaHdaqHCOBI47LVQYIIHh7ULbFGKBp/uVlinEAv3HpXYpPCCBm+e1VimkBLZKIRYYw9UWKRzuhEAUOmyPwv5FCDyj661RiAXOcIFhCt3B93DgEgX9hRD4J5UYpHBun5fT61jbdZeT2OtLZYNICNzLv4AhCl3vaClc/CEU91BEeKI0sREK+ydV3oOj91DTW4prS7UPG6Dwy6f13VjMrze4E3Eh6qkfT9Yazd2ZWV1IbQnnQQcJ7A5Sn/9+FsWV17wYvXOmvnu/RAK/iEc844pp7Y3gUGRTCdjRKtbXmWQ2JItqJ8hXhQX2NY9x+w1tQCkgcWc62Y7H8X5K6bN25u3Uj2R1Ww9GmTuPU9330tB+mEEf1/9nrUwDrreQBO4O9dTyHZCNtGzKF5VC92Hl9XsbNM9HGkPR2yOJxo1CZEa3VAM+2Ii7JhVWrhSEo3JCVw9zxw/xugJtEzqV1/EtxOYKWs6uEuPii2uiM1+aOunRgKFcoouivfbi4lGYo8pr+Qawu3LBBsS3tnbg+XKXdEFhc1cPBEeyXYaPOS+Qm1Z0aK/SOr4FTPZT0ozG17ZFBTBx/lZVv/eBfds1WXxLJEH2VLivFVWvBGbZVQ6vThr+GxpxXkXlygACS5qs165SAjOGMa4bbEDQpuPWh6XUdPB/luT9DQQGFmlnvtONm+xY7KgoRhMZZzbJ1d3+UZSAi2eK+52MqzNVeDUzlroW3CYKTVkkJiuGDVF2G3Mr9WKYKDTlVEVytoAyjUvKwsL8acp0kaFwRA424xQm49BPF9nK7uADyJY1pZcmFSYszfmR6KQQm6Yw6XREYGJGLgMhXmOKLYUZP10UkwqTc10/+ohOs0i2i4oaDvO8ts5vxoRIANMhYZoaCiwWit0OTps5i/y5tsonYlUsQqumDMNO5yup8kIpuItRN7LBkhIzZWOBWLYS5r3PI8qxZRHEMKeTImv6IzfYiOiLsJu4a1YnPVzn7o1+OQfb93v5+moxUZoQVk4NC+s/rYM2TC2sR86MIQ5w/aQSTerETbyQpc6TjIs1DTo8Qkce6wJtGW3o0TMQaTQZ8zg6gtescHDPQlxoE4gOhuw1JsTdosc0K0Sj5HGdyTQRlHHRTcUtbngoITEd2aiVb0uFGGtytt5vygkf/eHyz3qkrje77PwXLBnxjoelmiuSSkechmiaONhyJsYnXwnhBon/UTgaO1IrfyeUBltI3bI7+6HjhP5ZTRn6oLt2CKPXv2ZmkSxQRyxwvB4Rly/sgev8Sl9UMIQgJnOlq1lx0ozpY8pZfGg/5jr41G8qOBig1f/SbbVKCdxYeXwm+hT4VF5rocwyT6ra8Cg/4jiUc51WnaGmUye/wCcyMIbjiP62QiYbPvsct2vlIbYs8Pab0LmI9x/kAw3orifa7yuShysEJcN2sNU+L3E1vT+yeFb+C67cub42N065T+jBC51icXGuyQRGfsAwnMjjYrd3yu+fo5MmdVWMlNw1qDAi2FNzyelPcXT6QRhvj8tuNJlt7KB8eX1bM/hmK1eMrby0JOFyK819WKYeTD/L7X1kJe+u96kK3IkeXQVWaXmBBHC500lo6oseiO2JT+HONe8KW5xgjofRlR1JEC430UB9aVqoLq3icFIcj4R4jtoLGiDKbET4qegNBk+ckcy3WeUwcDSDb79SqgglWRE9cYxVE3HoZe1vl4+7OtLyIju9YgUbmbU5As+bam8Josq6aKBxCKcncpodwA36/aKgwD3XyXFsV7ALiBdFEtu5bqELK1Z9vjU8c6+9pRq+1hp5k3WGGRFmUucqerl3VELP0xwWi8Y5Kwewk7qVMLhmZCJQRQQb+j2gFz//Zx/C3fQwcnLKq8DRzHxnr5CjBBN2TJW608ziSqBXRb9OUT9QzHZUcFas5ms7NEDFRqLwlR51TD5GzNdiNqnKW0mTdu43wWtuvNiqTAcWM1zuylACL8dig08CFiApn0SctKvx2AcOFPz+3/pZzHiqXwChgW6N+7TQx9Ci6FV0K2ER5a51k+9h7aRF0atAmEk5CQITid7lroSDY//H4JOg20qYIFPyP/WA4yIlwoCZrtvlLgEXVuloJdwQl7skxkQjgsttUs6SFpFgAEOuCS53mcBKOBlzZJTbZIT38hx0wt8165yuHlgJPxa6TXC5S0aEM+7DTgS0GpWU9Rbgg8adhrjcZSOc0D6SS5/oNRTwQjdNcbnLRrihAxAb1V2pcoGIzxG0mu9yS+D3TT8w7sUjeaR2w9vgckuo//alzij3h1AasR0ut4S8KR/XXZ0P0JP2P3RvijManJLXGpdbYoAUmvKigxcRWczNOspSHtCIdUa5P0uyEm6Vyy3xbMQWhEi1DG9Z4OfW9tE7h8C8N24yDMMwDMMwDMMwDMMwDMMwDMMwDMMwDMMwDMMwDFMO/wBUhk2KtG2kdAAAAABJRU5ErkJggg==;imageBorder=default;fontSize=8;" parent="1" vertex="1">
          <mxGeometry x="668" y="319.88" width="40" height="40" as="geometry" />
        </mxCell>
        <mxCell id="td64U-7Y8Hn7qM6U94D4-43" style="orthogonalLoop=1;jettySize=auto;html=1;curved=1;sourcePerimeterSpacing=5;targetPerimeterSpacing=5;exitX=1;exitY=0.5;exitDx=0;exitDy=0;entryX=0;entryY=0.5;entryDx=0;entryDy=0;" parent="1" source="td64U-7Y8Hn7qM6U94D4-39" target="td64U-7Y8Hn7qM6U94D4-42" edge="1">
          <mxGeometry relative="1" as="geometry">
            <mxPoint x="524.5" y="349.88" as="sourcePoint" />
            <mxPoint x="573.5" y="349.88" as="targetPoint" />
          </mxGeometry>
        </mxCell>
        <mxCell id="td64U-7Y8Hn7qM6U94D4-44" value="&lt;ul&gt;&lt;li&gt;Synchronize data&amp;nbsp;&lt;br&gt;to&amp;nbsp; absolute GPS time&lt;br&gt;interval&lt;/li&gt;&lt;/ul&gt;" style="text;html=1;align=left;verticalAlign=middle;resizable=0;points=[];autosize=1;strokeColor=none;fillColor=none;fontSize=7;" parent="1" vertex="1">
          <mxGeometry x="708" y="367" width="130" height="50" as="geometry" />
        </mxCell>
        <mxCell id="td64U-7Y8Hn7qM6U94D4-47" value="alignToGPSTime" style="shape=image;verticalLabelPosition=bottom;labelBackgroundColor=default;verticalAlign=top;aspect=fixed;imageAspect=0;image=https://cdn-icons-png.flaticon.com/512/4285/4285557.png;imageBorder=default;fontSize=8;" parent="1" vertex="1">
          <mxGeometry x="753" y="320.38" width="40" height="40" as="geometry" />
        </mxCell>
        <mxCell id="td64U-7Y8Hn7qM6U94D4-48" style="orthogonalLoop=1;jettySize=auto;html=1;curved=1;sourcePerimeterSpacing=5;targetPerimeterSpacing=5;entryX=0;entryY=0.5;entryDx=0;entryDy=0;exitX=1;exitY=0.5;exitDx=0;exitDy=0;" parent="1" source="td64U-7Y8Hn7qM6U94D4-42" target="td64U-7Y8Hn7qM6U94D4-47" edge="1">
          <mxGeometry relative="1" as="geometry">
            <mxPoint x="740" y="360" as="sourcePoint" />
            <mxPoint x="678" y="349.88" as="targetPoint" />
          </mxGeometry>
        </mxCell>
        <mxCell id="td64U-7Y8Hn7qM6U94D4-49" value="&lt;ul&gt;&lt;li&gt;Smooth data&lt;br&gt;&amp;nbsp;in time&lt;/li&gt;&lt;/ul&gt;" style="text;html=1;align=left;verticalAlign=middle;resizable=0;points=[];autosize=1;strokeColor=none;fillColor=none;fontSize=7;" parent="1" vertex="1">
          <mxGeometry x="793" y="369" width="100" height="40" as="geometry" />
        </mxCell>
        <mxCell id="td64U-7Y8Hn7qM6U94D4-53" value="timeFilter" style="shape=image;verticalLabelPosition=bottom;labelBackgroundColor=default;verticalAlign=top;imageAspect=0;image=https://as2.ftcdn.net/v2/jpg/03/19/43/59/1000_F_319435940_CxY0rv7QSeboZ2RzN2rB8ReTcjKaQEfS.jpg;imageBorder=default;fontSize=8;" parent="1" vertex="1">
          <mxGeometry x="830" y="320.38" width="40" height="40" as="geometry" />
        </mxCell>
        <mxCell id="td64U-7Y8Hn7qM6U94D4-54" style="orthogonalLoop=1;jettySize=auto;html=1;curved=1;sourcePerimeterSpacing=5;targetPerimeterSpacing=5;entryX=0;entryY=0.5;entryDx=0;entryDy=0;exitX=1;exitY=0.5;exitDx=0;exitDy=0;" parent="1" source="td64U-7Y8Hn7qM6U94D4-47" target="td64U-7Y8Hn7qM6U94D4-53" edge="1">
          <mxGeometry relative="1" as="geometry">
            <mxPoint x="718" y="349.88" as="sourcePoint" />
            <mxPoint x="763" y="350.38" as="targetPoint" />
          </mxGeometry>
        </mxCell>
        <mxCell id="td64U-7Y8Hn7qM6U94D4-56" value="mergeTimeAlignedData" style="shape=image;verticalLabelPosition=bottom;labelBackgroundColor=default;verticalAlign=top;imageAspect=0;image=https://user-images.githubusercontent.com/657201/27938756-3417764c-6314-11e7-97a5-22cbc27fcc3a.png;imageBorder=default;fontSize=8;" parent="1" vertex="1">
          <mxGeometry x="900" y="321.01" width="40" height="40" as="geometry" />
        </mxCell>
        <mxCell id="td64U-7Y8Hn7qM6U94D4-57" style="orthogonalLoop=1;jettySize=auto;html=1;curved=1;sourcePerimeterSpacing=5;targetPerimeterSpacing=5;entryX=0;entryY=0.5;entryDx=0;entryDy=0;exitX=1;exitY=0.5;exitDx=0;exitDy=0;" parent="1" source="td64U-7Y8Hn7qM6U94D4-53" target="td64U-7Y8Hn7qM6U94D4-56" edge="1">
          <mxGeometry relative="1" as="geometry">
            <mxPoint x="803" y="350.38" as="sourcePoint" />
            <mxPoint x="840" y="350.38" as="targetPoint" />
          </mxGeometry>
        </mxCell>
        <mxCell id="td64U-7Y8Hn7qM6U94D4-58" value="&lt;ul&gt;&lt;li&gt;Merge duplicate&lt;br&gt;sources via&lt;br&gt;Bayesian averaging&lt;/li&gt;&lt;/ul&gt;" style="text;html=1;align=left;verticalAlign=middle;resizable=0;points=[];autosize=1;strokeColor=none;fillColor=none;fontSize=7;" parent="1" vertex="1">
          <mxGeometry x="850" y="367" width="120" height="50" as="geometry" />
        </mxCell>
        <mxCell id="td64U-7Y8Hn7qM6U94D4-59" value="removeDGPSJumps" style="shape=image;verticalLabelPosition=bottom;labelBackgroundColor=default;verticalAlign=top;aspect=fixed;imageAspect=0;image=data:image/png,iVBORw0KGgoAAAANSUhEUgAAAOEAAADhCAMAAAAJbSJIAAAAflBMVEX///8AAAD4+Pjm5ub8/Pzw8PDt7e319fW+vr6qqqrMzMzT09MoKCjQ0ND29vbY2Ni4uLiysrLDw8OdnZ1iYmJ9fX2MjIx1dXWSkpJGRkZvb2/e3t6jo6NoaGhMTEw6OjoeHh6Dg4MvLy9cXFwQEBBHR0chISE3NzdUVFQTExOcx8IWAAAIeElEQVR4nO2d63aqOhCAi6ACarkJooCK2ta+/wvuttLWWGeSkJDEvfL9POs0e0ZC5pKZ4enJYrFYLBaLxWKxWCwWi8VisVgsFovF8p/hTas0CbKyKMosSPzZeKRbIpksgtX25Nyya8p0rFs0CSzKlz+6XfGa+1PdIgrgpRtMu2+2wUS3pP2I8r87E+KcerrF5SZeM6v3xb58rN0a7Pn0+6J9nHMn6aHeRcfHeI7hoa+CH2S6paczXgro98FhoVsDCr036C+5ycfq81FcQcd5n+nWA2QhQ79PTH0bM1kKOs7SSL98JU9Bx5m7utX5g8fpw1CJdGt0w7SPE4OT6taJYCJfQcfxdWt1xeR1AAVNUnE0H0RBxwl1a/bN20AKOk6lW7UL7I7M7rhsmua4fmf+CyOi/4JJ1G2WTn4cTm+6CJZMh9POACfVZ5Bz6d8Jbr1Zy/CnG/Ua3eDShazh2N3fUf86UKjMXWginigSLqi+kGb/raSIV9DfI59y7uwUqAFT4cK9MZ32I4rPrjWWwvdozroM5bTSuE8DVLCYfSEXTR6fh9OAwjOqIFcuYoTuBm1hBmrrOeM7D7vAmQ8jP5WJtCf4iYd5t8kQ8tNpEZF67KspstxetuzCEvU64DHTw3FqyQMx9j0PP+Ro1mL2kV+87wULEodpyBIjVrr3uYCcXRpiDPj3XvdfFEkqK794Q35ukdsj2LdRbjDgU0HIx6rBZbeyJGdlC4oi5mLBW0PxHfgYFORVbOEWXFixSYRPUsFoDjb7ik9T+KcWDebg7LIUwcXlOImuDAcsSgNh2Fa0okuH4NJKX0T4PltYDPgMY06KyAD2PcRvGsA4UWkyIwc1FL+AhwtyJAjODJjG3YuvDR81KssXQCEEvO5vYH9Q5dU+KMRRfG24rErhnTBsLBrxxWNwcYXhxaCuFayhwvQ+bA6X4ovDGhbii7MC+x0Sojj4PVRo8lNQCAnZadibWIkvzgqsoQSrDHcwKNQQ3qUSAgD4UtgMDYWLfJ7hZJTC93AGa1iKro3k9hWepYgUwm4bnG1zahmyswHHcOLuMZzEUxoCIxoKulbYj6fyKhgRQzBOxUoDVNbxnRE5xOwFVqmqssatReQQOtMRO+Ts5cjOBlpmIlIxiZwzMrx6diJMQwHXA3uEKs3h09MIk0Qg24CWU6utqkELfHpfuuN1gGovn3BZegbj6N539jLlp0Np4upXV4D3NAjfF/AxovRp99lRlIp41a0JDS7OG7972uIrKrX3n9AK2F94BaJVGysvN8HtxQdrPhWpPQ3qKzCp7YYHnneRutq7+sYL/Gj/gvlsmNKbF5U6NB0M3U6MKQ0kdfeDjlpvlsb0HYMDN2Vpr1Xqdf/AINiHG057G5G8zBV6GtjxSv0fcmSDeWz6qS/56sRjbY09A3OEZvBl+Q26ZhBwjIg4BhXh5XgTP2fvHZZw79oTrubR03ZTJrHvx3Gdn/n6avW1kkobE4GjOKogkDpHAUKDO/ML1TuVgd7RAyw9soLo7pNlmsgmhGYFKekxCeifAMLQ6iyCwhs1kEFfRYUX2wi0/IMAL7p168BuosQwZULdaIjpNJ+YM/SLIaPRBxNOmW8YQ0U+dJt6kgEM/8GAsSbXyDf8ps0zk274zRr19Ylkw68jP0qjlamgptQTBXSsNSemmHoSfEwGF/oDivtIS9ton5wEImm+p1mmnkRwiPCFg24tMDwZAxRNM/UkEgy/eaaeBO4HYUS4jHpwBJPE+mZCsSM2CdOwgOIu6HAlGqaaehK0hBLHXFNP0jv5ZkbukIWeybc33XKz4/XT0IiBs4z0Sr6ZbupJeiTfzDf1JNzJN33VCH3hTL6dnnULzA2n4TdkcjcXXMk3TaMfBWnZFXwcU0+CtfgQ6B2GLADWS0jwSKaeBOkXvsaYTyD0gCn59mimnoThuwmPZ+oJ6DWop0eI6jEoU9sf09STUMpsH9PUk6ClzkpnsA0G8j3EhzX1JIgPbuY1IT9gT8wjm3oSIPlm6kcAGfDGURoHZd4cO2N3N/nWdfok2+WqqGN/4T6AZZws/Cxv1lcdtJ3Dcq8efH9RiPBdD8dVkYQmXq95lV9u7uYtOnNwJ/l20QM4ho5FEpnyeeBRFeTY93G78rs/ybfLsBkP+9N9Uy90q1nVZ+oXxro06E3yrXu29GvxdRFq+2RnyNi5dNmO5NPqhi2xfdHMOSYalHQZhXN+EoXEBfhl83FcGDeKbWfFVXTRPbCr5Ntl9D5jCqDjoDLrz/78HOd9/nboovj2+79dTP1ou3ub8xRQn1WZkQn1c3D7dVNkQRxW7mT8fGXHu5bt66h+NJ647swPsnKznVNGUai6vEE+G/vaFHVYwZmzS/LtFfZdxtUsKXPkF1Si4t3e+fWqZnFFvirfGP6/6Sxp71+zKkg8/gkU5k0QMXuUGc9cOTfO//ycCrLjpOU+B5z+8pmzIXTsb8i3c3j3/Mpw7wL+PTPll9BLr0fFDL9Nf8+Zk7I5htHVZh3eYhAHwCYdPg8RFYTrO/w/eJuo32azwf5Rz02aG9ukoJvtXjX3S56wH6eMuH55vGN5Vcxlh9zledNKCc/Hs49oGhpYI2HmOwOUSpL1qqj9qHK5Ah5vUkVhULaUcFPVEJeQ6j9+cXrdnZu2zOog8dNwVlXuL1W0SP04qLOsWB3Xc8YPdau7hxu1bBLJ5az0EmfCE0BJYSnyObd+xOxfjRdmV+u56vf81dDzBj5ZBloTqG6ChXOiHJa1dEPbh3EUtDu285VDuU0WGlaF4kZJuZLwPOfLol5UJjw5CHeR1sWq2XK9ovv1ctNmflhpy/72whu5UZjGcVKXRZuvNk2z/KJpNqtVW5RZEMd+OHN7xIwWi8VisVgsFovFYrFYLBaLxWKx3PIPhHxxg3vu9MoAAAAASUVORK5CYII=;imageBorder=default;fontSize=8;" parent="1" vertex="1">
          <mxGeometry x="990" y="321.01" width="40" height="40" as="geometry" />
        </mxCell>
        <mxCell id="td64U-7Y8Hn7qM6U94D4-60" style="orthogonalLoop=1;jettySize=auto;html=1;curved=1;sourcePerimeterSpacing=5;targetPerimeterSpacing=5;entryX=0;entryY=0.5;entryDx=0;entryDy=0;exitX=1;exitY=0.5;exitDx=0;exitDy=0;" parent="1" source="td64U-7Y8Hn7qM6U94D4-56" target="td64U-7Y8Hn7qM6U94D4-59" edge="1">
          <mxGeometry relative="1" as="geometry">
            <mxPoint x="880" y="350.38" as="sourcePoint" />
            <mxPoint x="910" y="351.01" as="targetPoint" />
          </mxGeometry>
        </mxCell>
        <mxCell id="td64U-7Y8Hn7qM6U94D4-64" value="&#xa;mergedByKF" style="shape=image;verticalLabelPosition=bottom;labelBackgroundColor=default;verticalAlign=top;aspect=fixed;imageAspect=0;image=https://thumbs.dreamstime.com/b/budget-estimate-icon-beautiful-meticulously-designed-budget-estimate-icon-120822823.jpg;imageBorder=default;fontSize=8;spacing=-9;horizontal=1;labelPosition=center;align=center;" parent="1" vertex="1">
          <mxGeometry x="1070" y="321" width="40" height="40" as="geometry" />
        </mxCell>
        <mxCell id="td64U-7Y8Hn7qM6U94D4-65" style="orthogonalLoop=1;jettySize=auto;html=1;curved=1;sourcePerimeterSpacing=5;targetPerimeterSpacing=5;entryX=0;entryY=0.5;entryDx=0;entryDy=0;exitX=1;exitY=0.5;exitDx=0;exitDy=0;" parent="1" source="td64U-7Y8Hn7qM6U94D4-59" target="td64U-7Y8Hn7qM6U94D4-64" edge="1">
          <mxGeometry relative="1" as="geometry">
            <mxPoint x="950" y="351.01000000000005" as="sourcePoint" />
            <mxPoint x="1000" y="351.01000000000005" as="targetPoint" />
          </mxGeometry>
        </mxCell>
        <mxCell id="_bKaIS0eksIRQSFzRqH7-1" style="orthogonalLoop=1;jettySize=auto;html=1;curved=1;sourcePerimeterSpacing=5;targetPerimeterSpacing=5;entryX=0.5;entryY=0;entryDx=0;entryDy=0;exitX=0.5;exitY=1;exitDx=0;exitDy=0;" edge="1" parent="1" source="_bKaIS0eksIRQSFzRqH7-2" target="td64U-7Y8Hn7qM6U94D4-42">
          <mxGeometry relative="1" as="geometry">
            <mxPoint x="690" y="260" as="sourcePoint" />
            <mxPoint x="687.6" y="315.5" as="targetPoint" />
          </mxGeometry>
        </mxCell>
        <mxCell id="_bKaIS0eksIRQSFzRqH7-2" value="eventDetection" style="shape=image;verticalLabelPosition=bottom;labelBackgroundColor=default;verticalAlign=top;aspect=fixed;imageAspect=0;image=data:image/png,iVBORw0KGgoAAAANSUhEUgAAAOEAAADhCAMAAAAJbSJIAAAA2FBMVEX///9UVFTOIi1RUVFMTExHR0dERERLS0tCQkLMChzYXWPNFiT7+/vKAAD4+Pj19fX99vbs7OxbW1vU1NRhYWGtra3Jycl/f394eHienp7Y2NikpKTROEGVlZXf39/m5uZwcHDRMTrExMS2trbLAA5paWmLi4u8vLyPj4+ysrLNEiF8fHzxycv56erz0tTuv8HBEyHIJS/aaG3USE/hiIzqs7XWU1rccnf229yMLzRDUlGNQUXefYFiR0nTQkr77u/op6qvKjLkmZ3ijpI9Skq9KjNQRUZaQEHlU9lHAAAOgklEQVR4nO1deXeiyhIH6W5wXIiyuDAoUVETk8y9mS3vvntn5i7vve//jV5Xg0alGlwwMuf074+ciIRQdO1VXWiagoKCgoKCgoKCgoKCgoKCgoKCgoKCgoKCgoKCgoKCgoKCgoKCwilotgWa176P8tFxpsE8cnVCmWUxSnQ36g2mTufa91UKbH/QJxY1iWEY+gb8AzEpM6PB5Kcms+kMuhYlW5QBaTsfCbX00P852bbpz80NdWLFGCN6l0Mn/FexqmsqaW/Svvb9HovRktANAUzvD6b+qLNWMc12Z+RPB32dUjM9iZrz4XXv+DgsYr5cKXVRINcotuP1abrQhLnTn4Rbm54pls8gVnfgFJ8/DFxLLKVh0sC+/P2di3ZAzWRJusH40D8ae26y6IQNcmi8KeMGz8UdEfSZ9FixGi1NsZCEBpIzbr7Uv559f+fC6VJBn+GdwG32nS6429Qn2Nc37+9rrQ/n3uF5sHuWuENjeuoVFoJGg0VZ3XRz26hdm8KFECWT3J11ER243LC8veOCwPq7cy59Luw+g1tjg3M1vkfhQdHdZbx5f3UCHQL3xfoleJmdnnhWdEsaK0BgYImbWpRzNV88Litcf64AgX0qFrA0c90Uy2jGyQWvL4OdLgHlcLIGxbAQStUAn+H6BI7AryT6qNyrjl14bMypAIs6jBNo9suPfnrA+tbi27UJ9EHHsOUlLj2AS/9SCQIz9rkkLJj+a60KBLLDjER77PiLO8+7m06c8WFqd/LLtQkcglJnqKO8A9sPVl3KeEgvQPmv3f7AL3IPbq4ugx1Q6VYRgaMghnTUdgJqnYRycyPk62vRtl5MYCfQ2SYdZRACS0g25BqEkVBmZq5vB7WI3yfLjST8vpWQBwkbM14tBx5HEPZiSKEmZBIW4/Hg9QkMeZxDB3sHb76/php8lyU5JmpGwb7QdRyvT2iSr6J61h+6PotqE65lSG/n0Mvvt7NWq/Ys4lQnFvQZlCx9iTvQdEIjSVrR7t46VoDADifQ6G4fuXlu3dcAjdntUxrvE6vv51/H6VlEBJbRdt6qAiyquSCE25z3WE/oE5j96zchYssD0m32gCZx/WsKqgoEBuaeIfxeF6tXv63NgNLGv38z2PLAeLgdCIE03fT8CrCoNua+DJlvH/kIN/XxoQnSOAMS/+gfnC7lPD9nIgUlnlkVCNRig9vC7YzMZ07V7FP64YF/aHw57oqOLuL6QUUInPLAxtpxR7h/1XjefPoA9D4eedEl+Li0VwUZ1GwuhGQnYHoEkr6/fv7SqNV/HHvZiYjrrx4uAULOUGTHxvFF22HLH/Xa/e9HX3fMWf/q4ZK4Ec5Oe2m1z5yiT1ufn2ZHCyKgGVWCQK1n7Nn60ii8frgkAEvI9qKecri0EkqGY86XMNo79rinPD+eomkqYSa0xCHdX0JB0pa1+HyKtagKgaBIM0uYWMD6mi+FxX/OnJOPyhDYBocUiRe+wP19e+DR4cvXVu34JayKDHJ3xswoUgEn8bxn9fqM32qt9Tlzhu1787hrGHo8z8TDFSIQPFITy1zEf7zGTrVGhsCOF9O0SQg6vihzd/oYKsOimjbiesZCkp0L7qn+OVtHwO+fdr8d9pi5l2szTKu/0VcVIlALuJ7pZQ83wY9bPn66bbVa9a8Pu192VtYmHQW9iSztETKsKMmzVYhFNY3fGkX0DATEpvBUv2eaXgIraQdiUTAZdWy7M/KDPkvyM6IKWikCgUnN7OEm51FUOrl+iWmShtntzWtO+iJRxeP6KrGoYNLd0D6BB+EU+geiuGiwFZL2HfdEXG9UikDQpBiTQgURLQGL4iLRJbn7YZc/mV8rRaANcVNWk/oU5V1OgihNIYu+RkiqES5twElBPDatb+gE60br0KLiYvO2WgRqAy6G2RvuWHup0zW6ULnJKy4mSuaEQPJiADHMyhQ4chFy9tIsqNxUS4sCwCggYhhxRw5ZKYcvrRlmj29QKTuYgFtDI84ctSnuyLkGdvYrKkigtjAxawjqB6EEPFWWk/auHotqQtEgnguoH0STcjVDcni0kgRCkg2x97j6cRgqs2tUk0CQLITvTFQMe7lLWEUZBIB5yzTIjhkW9DchjpRKYVUJBKVpZI6CoslGjHDUlV2ooiwq8oiI0uT2nuz3K0jVj0BlCdSGfF36maOgYLP2PkLVD6fu4eGxsgRqDsqPc4IpWNz70T61ZrNZxZztLXDZItk2yxVfrcz+GAizsiKrfZ0lubiKEqhNKGYAOD+yTAQPCjaraJ5aabIRIXCBdX/ZgwDZ3OCHBR0sJ2OC6pQYM5LgwUaZU/9O+1Ea2bLU1CJWNgBzTZYViyE/9YAtcacApxB1A4DCrFL62pCu4Rxzl2x+FT1zqmfq5oVads9ew7/qCYU7xdQEPUz32qgzARSetfNIjiPksIPe22Mqh60X7CpZfdVBpTkgkrTX+QBdmg2e0KfftND04o+WqNr8nf0GeD0jhzgn4Aa4FOD2cMntYbZBdL/rLcXDt1brFtli1+b2k2TUJvzDVebckFNY3Hh9EnD1EaBB4wpPrGqSra5DNIoGwc8aYFQplQNcLCDwz0qnhx6VAnLp6EUQrYkKfjmAVqhs4tdBvVXo4sfz/ChcdF3mKD/qktxlGdCxWLeD00J03PVGAQUflm0kdtHVgsTXoRc+FjH6HyEuzj7TEC804liiJ4P6yUbckidaDkDGs1zTRzlslBvk7wJvYJGoHzyGKwkBGtZKlApXCIiqR8HlDet+wC+Ma7aSgCcshqiKFXUnrC1FciZi4fBSXng5l0aadCI4P66gdHjADq6mjifHIcZk2b+PMf+uNOCeCvfbMGdf7FfIS+unWMETQgzcAi/44CXMsoArlYkkrzaFon+hPg0h4YElrSK0c2eYl8Q7H6BqsvETaHWGMU4PjGJOBRgABJII+UJSlTzSWToWDv4A53j/QrLtxFzlTVmYQw5Wx3YN8RACswp91GKVBshkI88VXDREJ3BlAVVg0pV6kWPXhEYizAcD/YVIhOCXS44HW+HFUL5WCPdqQKLYqi8ZlhGIdhMdvWHOjUgGQ1bKKw9Q0EZYZyIpkkJvOhUDT7IDa5pTMcZkPThh/1vgb0RBz3Ny6aWgg9soTZdXmgbJ0BpzvjOVzQlJsp1Lss9dtJEhKw/26kKhUwoXZ1Mo+Mq80GEyeIhQFod3C9+f3IURS/ZWmobE6bEZvoTApFh3a4m4M3E5cJH29tc/ImbanAj7uE0zbU00pSOhhJ3BAoiepHOnRHQkIYMo+crzQ1OX7QwXhD3OXU86acJnuKdqHxGwnIyVRG0K656jxkdBTJlJBPhCuoMc37INKjZCvvAkHFQqRA8bogJE+TT/v9vDRRCGyzBYDPMdS/BU0TYOULAXSiRugatNNHqBnc+5DUIHwwNPFctqg1GiZfyHfNzhpliYqvwutgMBszYIGsXHMseiXMCGC1yngIuGJCOOBKQ/DANTQj7uM5YPcInRRRyD3aNn2uMO6FwsXEyWsCBSKQeijRbvCIbK73kkdgxpxyYsIZLUuwTAo8IFfiHm8ZyRYxiDa8Dw6iC0kV1kllEWTehbxyXeEySeHL+JtnAmubT5RlIIuJN7oZ6YyXOiYzUVbeE4gcJTvbDDtoWu3AsVd0lPGv01h6djSagQmbsTLnoiQKWgNlkDcwb3QlCr8fLXu/fv3/39hH03TEYOSAzqROKpXgxg3WVCMTLErc4zntnLx1a9Uas17mffMjQ2Q3gwhikxp1D2ulwuH0Ob5HihbTFGkeynApMSd7p776/d7xbiqZixTJP0C/z6CwBcK1PqQXliT9PuWJ0f0KbQqM9msI612XYt33fF3ihLfj3IP10slS+B8EKlZYlxsp+Ldu/WYYjoh2q9+/D4+OFZ/Lqp5i/c9HlIXYWh1FO9KMALzWGcqWkm+yiXiWiJzTHpxsQnWMWG+HUYJnsvicTMA0AI96ZUvAmEh9yV/9/2IMnFEGosfVtMO9nolxfY+f257Yf6eox3mBMxxsZ5jtLJWDBJPn4Ne5CM6OZE/vNnbWfIAnS4/eefZC+pYdIwT4mI7MGF2rwKACWH/MpL+66bLNJvv/Il3OqEghkMjXRcm54//Fv8lzcJKRAIHV7gDA9DAkkoUJ/bh1swZ8kgjIYFAeXgwBrdhQCVF1qYuRgF0X+5brnfPgaW/39RUChdQYG0Xxqi8lJMoqbdNHZnEMEa7nyWQBCIVm7eCh0YDllUIgTAsJOtKQQwOaNW/FeCRc1LJ0jzIZIOZrE1htbS29eP3xqHzK8RxUV6XQI5o0LagbhFlfXvnC3vN+NOfq+jTaa7aMaiuHhtAjmJYiw1KdIZn+owsU5Q9fKF/35f9K4KGIslKy6+MZoRPOv8QaYcsI+kMXv//Pwehp80agUvHBEjy4t5440ggnO2ytfpN7eiU7/RSH4WjK8Rl6QH9lS9AUQCipD8Dqjm8zpAbLS+5K/gcDNisDJIX/4wz1/Gp+eZwLuH3NPSeP9SjcAnwk7ielJQt2i+PDw8FUjgRCwglcb7V8OdqNfT+MwwZxSJBg1Zyu2qSON6a3WGBevMk74Gebx/XUxFzGtYvRPvb5zQlxfvXxv2MpknxKITtITTZ+kDqpwEbmPUT2dc68FR99nxuix9OJV/h94wYul75eLpgUTaiyjJRxksvtC+u3IxTEZ0Q6LNDZyi9z8Ng9hK0zlb882qjs4gfb8jDDCLB5Mx6gk0x34QbUabUTO8fhhxDCarzfspOZWkuxp4C384GnOMhs7EG/RcsqZOjDqb/CSvd9yCvdi8n1K8+UG8uUMg6fzavAGC0uhQia0c2v7Ahdc87L+9Y936ZZjU6oZ+RUKkU2E73ty1WLJsa8CCMqvb83526l4xdhZeOF9FMUfUn4fewhn/fIKnoKCgoKCgoKCgoKCgoKCgoKCgoKCgoKCgoKCgoKCgoKCgoKCgcHn8H9VY4cTRt/7TAAAAAElFTkSuQmCC;imageBorder=default;fontSize=8;" vertex="1" parent="1">
          <mxGeometry x="673" y="244.5" width="30" height="30" as="geometry" />
        </mxCell>
        <mxCell id="_bKaIS0eksIRQSFzRqH7-3" style="orthogonalLoop=1;jettySize=auto;html=1;sourcePerimeterSpacing=5;targetPerimeterSpacing=5;exitX=0.5;exitY=1;exitDx=0;exitDy=0;edgeStyle=orthogonalEdgeStyle;entryX=0;entryY=0.5;entryDx=0;entryDy=0;" edge="1" parent="1" source="td64U-7Y8Hn7qM6U94D4-21" target="_bKaIS0eksIRQSFzRqH7-2">
          <mxGeometry relative="1" as="geometry">
            <mxPoint x="212.9999999999999" y="351.0000000000002" as="sourcePoint" />
            <mxPoint x="650" y="260" as="targetPoint" />
          </mxGeometry>
        </mxCell>
        <mxCell id="_bKaIS0eksIRQSFzRqH7-5" value="&lt;font style=&quot;font-size: 8px;&quot;&gt;Event definition functions&lt;/font&gt;" style="text;html=1;align=center;verticalAlign=middle;resizable=0;points=[];autosize=1;strokeColor=none;fillColor=none;" vertex="1" parent="1">
          <mxGeometry x="269.5" y="250" width="110" height="30" as="geometry" />
        </mxCell>
        <mxCell id="_bKaIS0eksIRQSFzRqH7-6" style="orthogonalLoop=1;jettySize=auto;html=1;sourcePerimeterSpacing=5;targetPerimeterSpacing=5;exitX=1;exitY=0.5;exitDx=0;exitDy=0;edgeStyle=orthogonalEdgeStyle;entryX=1;entryY=0.5;entryDx=0;entryDy=0;" edge="1" parent="1" source="td64U-7Y8Hn7qM6U94D4-64" target="_bKaIS0eksIRQSFzRqH7-2">
          <mxGeometry relative="1" as="geometry">
            <mxPoint x="185" y="256" as="sourcePoint" />
            <mxPoint x="683" y="270" as="targetPoint" />
          </mxGeometry>
        </mxCell>
        <mxCell id="_bKaIS0eksIRQSFzRqH7-7" value="&lt;ul&gt;&lt;li&gt;&lt;span style=&quot;background-color: initial;&quot;&gt;IDs type of sensor&lt;/span&gt;&lt;br&gt;&lt;/li&gt;&lt;li&gt;&lt;span style=&quot;background-color: initial;&quot;&gt;Creates empty structure&lt;br&gt;per sensor type&lt;/span&gt;&lt;/li&gt;&lt;li style=&quot;border-color: var(--border-color);&quot;&gt;&lt;span style=&quot;border-color: var(--border-color); background-color: initial;&quot;&gt;Loads sensor data into&amp;nbsp;&lt;br&gt;structure by matching data names&lt;br&gt;in raw data to template structure&amp;nbsp;&lt;br&gt;for that sensor type&lt;/span&gt;&lt;/li&gt;&lt;li&gt;Adds variance estimates to sensors&lt;/li&gt;&lt;/ul&gt;" style="text;html=1;align=left;verticalAlign=middle;resizable=0;points=[];autosize=1;strokeColor=none;fillColor=none;fontSize=7;" vertex="1" parent="1">
          <mxGeometry x="120" y="500" width="170" height="90" as="geometry" />
        </mxCell>
      </root>
    </mxGraphModel>
  </diagram>
</mxfile>
